<?xml version="1.0" standalone="no"?>
<!DOCTYPE svg PUBLIC "-//W3C//DTD SVG 1.1//EN" "http://www.w3.org/Graphics/SVG/1.1/DTD/svg11.dtd" >
<svg>
<metadata>
Created by FontForge 20090622 at Tue Jan  1 12:45:08 2019
 By deploy user
Personal Use Only - Commercial licences available. 
</metadata>
<defs>
<font id="Moon2.0-Regular" horiz-adv-x="600" >
  <font-face 
    font-family="Moon 2.0"
    font-weight="400"
    font-stretch="normal"
    units-per-em="1000"
    panose-1="0 0 5 0 0 0 0 0 0 0"
    ascent="800"
    descent="-200"
    x-height="538"
    cap-height="706"
    bbox="-82.5238 -275 1042 905"
    underline-thickness="50"
    underline-position="-50"
    unicode-range="U+0020-U+1D153"
  />
<missing-glyph horiz-adv-x="500" 
d="M410 800v-1000h-317v1000h317zM333 733h-165v-33h65v-37h-66v-33h166v33h-66v37h66v33zM267 604h-100v-104h166v34h-66v70zM233 570v-36h-33v36h33zM333 473h-166v-33h66v-37h-66v-33h100v70h66v33zM333 413h-33v-66h-133v-34h166v100zM333 291h-100v-56h34v23h33v-47
h-100v80h-33v-113h166v113zM333 118h-166v-113h166v113zM300 85v-47h-100v47h100zM333 -18h-166v-33h70l-70 -47v-33h166v33h-102l70 47h32v33z" />
    <glyph glyph-name="fi" unicode="fi" horiz-adv-x="345" 
d="M283 578q-13 0 -22 9.5t-9 22.5v32q-4 1 -10 1q-35 0 -60 -25t-25 -60v-46h126q14 0 23 -8.5t9 -23.5v-448q0 -14 -9.5 -23t-22.5 -9t-22 9.5t-9 22.5v416h-95v-414q0 -14 -9.5 -23t-22.5 -9t-22.5 9t-9.5 23v414h-31q-13 0 -22.5 9.5t-9.5 22.5q0 14 9 23t23 9h31v46
q0 62 43.5 105.5t105.5 43.5q25 0 53 -10q20 -8 20 -30v-57q0 -13 -9.5 -22.5t-22.5 -9.5z" />
    <glyph glyph-name="fl" unicode="fl" horiz-adv-x="350" 
d="M320 665v-2v-631q0 -13 -9.5 -22.5t-22.5 -9.5q-14 0 -23 9t-9 23v610q-3 1 -10 1q-35 0 -60 -25t-25 -60v-46h34q13 0 22.5 -9.5t9.5 -22.5t-9.5 -22.5t-22.5 -9.5h-34v-414q0 -14 -9.5 -23t-22.5 -9t-22 9.5t-9 22.5v414h-36q-13 0 -22.5 9.5t-9.5 22.5q0 14 9 23t23 9
h36v46q0 62 43.5 105.5t104.5 43.5q25 0 53 -10q23 -8 21 -32z" />
    <glyph glyph-name=".notdef" horiz-adv-x="500" 
d="M410 800v-1000h-317v1000h317zM333 733h-165v-33h65v-37h-66v-33h166v33h-66v37h66v33zM267 604h-100v-104h166v34h-66v70zM233 570v-36h-33v36h33zM333 473h-166v-33h66v-37h-66v-33h100v70h66v33zM333 413h-33v-66h-133v-34h166v100zM333 291h-100v-56h34v23h33v-47
h-100v80h-33v-113h166v113zM333 118h-166v-113h166v113zM300 85v-47h-100v47h100zM333 -18h-166v-33h70l-70 -47v-33h166v33h-102l70 47h32v33z" />
    <glyph glyph-name=".null" horiz-adv-x="0" 
 />
    <glyph glyph-name="nonmarkingreturn" horiz-adv-x="333" 
 />
    <glyph glyph-name="space" unicode=" " 
 />
    <glyph glyph-name="exclam" unicode="!" horiz-adv-x="146" 
d="M73 143q13 0 22.5 9.5t9.5 22.5v508q0 13 -9.5 22.5t-22.5 9.5t-22.5 -9.5t-9.5 -22.5v-508q0 -13 9.5 -22.5t22.5 -9.5zM73 81q-18 0 -30.5 -11.5t-12.5 -28.5q0 -18 12.5 -29.5t30.5 -11.5t30.5 11.5t12.5 29.5q0 17 -12.5 28.5t-30.5 11.5z" />
    <glyph glyph-name="quotedbl" unicode="&#x22;" horiz-adv-x="269" 
d="M196 770q-18 0 -30.5 -11.5t-12.5 -28.5q0 -22 13.5 -51.5t29.5 -29.5t29.5 29.5t13.5 51.5q0 17 -12.5 28.5t-30.5 11.5zM73 768q-18 0 -30.5 -11.5t-12.5 -28.5q0 -22 13.5 -51.5t29.5 -29.5t29.5 29.5t13.5 51.5q0 17 -12.5 28.5t-30.5 11.5z" />
    <glyph glyph-name="numbersign" unicode="#" horiz-adv-x="569" 
d="M507 198q13 0 22.5 -9.5t9.5 -22.5t-9.5 -22.5t-22.5 -9.5h-118l-12 -106q-1 -12 -10.5 -20t-21.5 -8h-4q-13 2 -21 12.5t-7 23.5l12 98h-132l-12 -106q-2 -12 -10.5 -20t-20.5 -8h-4q-13 1 -21.5 11.5t-6.5 24.5l11 98h-67q-14 0 -23 9t-9 23q0 13 9.5 22.5t22.5 9.5h75
l31 268h-106q-13 0 -22.5 9.5t-9.5 22.5q0 14 9 23t23 9h113l17 148q1 13 11.5 21.5t23.5 6.5q13 -1 21.5 -11.5t6.5 -23.5l-16 -141h131l17 148q1 13 11.5 21.5t24.5 6.5q13 -2 21 -12t7 -23l-17 -141h73q13 0 22.5 -9.5t9.5 -22.5t-9.5 -22.5t-22.5 -9.5h-80l-31 -268h111
zM201 198h131l31 268h-131z" />
    <glyph glyph-name="dollar" unicode="$" horiz-adv-x="427" 
d="M250 327q32 -10 54 -20t45.5 -28t35.5 -46t12 -65q0 -67 -49 -117.5t-134 -50.5h-2l-3 -33q-1 -12 -10.5 -20t-21.5 -8h-4q-13 2 -21 12.5t-7 23.5l4 35q-56 17 -87.5 61t-31.5 97q0 13 9.5 22.5t22.5 9.5t22.5 -9.5t9.5 -22.5q0 -25 15 -52.5t48 -40.5l23 206
q-64 20 -101 51.5t-37 95.5q0 62 46 109t126 47h1l4 33q1 13 11.5 21.5t24.5 6.5q13 -2 21 -12t7 -23l-5 -36q51 -17 79 -57.5t28 -88.5q0 -14 -9.5 -23t-22.5 -9t-22 9.5t-9 22.5q0 54 -51 80zM106 428q0 -32 18.5 -49.5t63.5 -32.5l20 174q-49 -1 -75.5 -28.5t-26.5 -63.5
zM220 64q60 2 87 35.5t27 68.5q0 39 -21.5 58.5t-69.5 35.5z" />
    <glyph glyph-name="percent" unicode="%" horiz-adv-x="740" 
d="M545 703q12 -6 16 -18.5t-2 -24.5l-321 -642q-9 -18 -29 -18q-7 0 -14 3q-12 6 -16 18.5t2 24.5l321 643q6 11 18.5 15.5t24.5 -1.5zM334 562q0 -61 -43.5 -102.5t-108.5 -41.5t-108.5 41.5t-43.5 102.5t43.5 102.5t108.5 41.5t108.5 -41.5t43.5 -102.5zM94 562
q0 -35 25 -57.5t63 -22.5t63 22.5t25 57.5t-25 58t-63 23t-63 -23t-25 -58zM558 288q65 0 108.5 -41t43.5 -103t-43.5 -103t-108.5 -41q-64 0 -107.5 41t-43.5 103t43.5 103t107.5 41zM558 64q38 0 63 22.5t25 57.5t-25 58t-63 23t-63 -23t-25 -58t25 -57.5t63 -22.5z" />
    <glyph glyph-name="ampersand" unicode="&#x26;" horiz-adv-x="630" 
d="M569 64q13 0 22 -9.5t9 -22.5t-9 -22.5t-22 -9.5q-88 0 -147 43q-63 -43 -149 -43q-113 0 -178 65.5t-65 154.5q0 76 40.5 119.5t112.5 70.5q-91 42 -91 132q0 66 48 115t133 49q84 0 132 -49t48 -115q0 -14 -9.5 -23t-22.5 -9t-22.5 9.5t-9.5 22.5q0 40 -30 70.5
t-86 30.5t-86.5 -30.5t-30.5 -70.5t28.5 -59.5t100.5 -40.5l9 -3q26 -7 23 -35q-3 -22 -26 -27l-7 -2q-52 -15 -80.5 -25.5t-57 -28.5t-40.5 -42t-12 -59q0 -62 46.5 -109t132.5 -47q61 0 102 25q-35 46 -52 117q-3 13 4 24t20 14t24 -4t14 -20q12 -53 38 -88q26 37 28 82
q1 13 10.5 22.5t22.5 8.5t22 -10t9 -23q-3 -70 -45 -124q40 -24 99 -24z" />
    <glyph glyph-name="quotesingle" unicode="'" horiz-adv-x="146" 
d="M73 738q-18 0 -30.5 -11.5t-12.5 -28.5q0 -22 13.5 -51.5t29.5 -29.5t29.5 29.5t13.5 51.5q0 17 -12.5 28.5t-30.5 11.5z" />
    <glyph glyph-name="parenleft" unicode="(" horiz-adv-x="175" 
d="M114 0q2 0 10 2q12 4 18 15.5t2 24.5q-101 311 0 623q4 12 -2 23.5t-18 16.5q-13 4 -25 -2t-16 -19q-107 -330 0 -662q8 -22 31 -22z" />
    <glyph glyph-name="parenright" unicode=")" horiz-adv-x="175" 
d="M62 0q23 0 31 22q107 332 0 662q-4 13 -16 19t-25 2q-12 -5 -18 -16.5t-2 -23.5q101 -312 0 -623q-4 -13 2 -24.5t18 -15.5q8 -2 10 -2z" />
    <glyph glyph-name="asterisk" unicode="*" horiz-adv-x="313" 
d="M273 608q10 0 10 -10q0 -11 -10 -11h-91l64 -64q8 -7 0 -15t-15 0l-64 65v-94q0 -11 -10 -11q-11 0 -11 11v94l-66 -67q-8 -7 -15 0q-7 8 0 15l67 66h-92q-10 0 -10 11q0 10 10 10h91l-64 65q-7 7 0 14t15 0l64 -64v94q0 10 11 10q10 0 10 -10v-95l67 67q7 7 14 0t0 -14
l-67 -67h92z" />
    <glyph glyph-name="plus" unicode="+" horiz-adv-x="348" 
d="M286 335q13 0 22.5 -9.5t9.5 -22.5t-9 -22.5t-23 -9.5h-80v-80q0 -13 -9 -22.5t-23 -9.5q-13 0 -22.5 9.5t-9.5 22.5v80h-80q-13 0 -22.5 9.5t-9.5 22.5t9.5 22.5t22.5 9.5h80v80q0 13 9.5 22.5t22.5 9.5t22.5 -9.5t9.5 -22.5v-80h80z" />
    <glyph glyph-name="comma" unicode="," horiz-adv-x="146" 
d="M73 66q-18 0 -30.5 -11.5t-12.5 -28.5q0 -22 13.5 -51.5t29.5 -29.5t29.5 29.5t13.5 51.5q0 17 -12.5 28.5t-30.5 11.5z" />
    <glyph glyph-name="hyphen" unicode="-" horiz-adv-x="364" 
d="M302 247q14 0 23 9.5t9 22.5t-9 22.5t-23 9.5h-240q-14 0 -23 -9.5t-9 -22.5t9 -22.5t23 -9.5h240z" />
    <glyph glyph-name="period" unicode="." horiz-adv-x="121" 
d="M48 66q-18 0 -30.5 -11.5t-12.5 -28.5q0 -18 12.5 -29.5t30.5 -11.5t30.5 11.5t12.5 29.5q0 17 -12.5 28.5t-30.5 11.5z" />
    <glyph glyph-name="slash" unicode="/" horiz-adv-x="351" 
d="M51 3q13 -5 25 0.5t16 18.5l227 622q5 13 -0.5 25t-18.5 16q-13 5 -25 -0.5t-16 -18.5l-227 -622q-5 -13 0.5 -25t18.5 -16z" />
    <glyph glyph-name="zero" unicode="0" horiz-adv-x="766" 
d="M383 0q146 0 249.5 103.5t103.5 249.5t-103.5 249.5t-249.5 103.5t-249.5 -103.5t-103.5 -249.5t103.5 -249.5t249.5 -103.5zM383 643q119 0 204 -85t85 -205q0 -119 -85 -204t-204 -85q-120 0 -204.5 85t-84.5 204q0 120 84.5 205t204.5 85z" />
    <glyph glyph-name="one" unicode="1" horiz-adv-x="124" 
d="M62 0q14 0 23 9t9 23v642q0 14 -9 23t-23 9t-23 -9t-9 -23v-642q0 -14 9 -23t23 -9z" />
    <glyph glyph-name="two" unicode="2" horiz-adv-x="527" 
d="M465 0q13 0 22.5 9.5t9.5 22.5t-9.5 22.5t-22.5 9.5h-368q6 29 21.5 55t44 53t49 43l61.5 46q48 35 73 55t59 54.5t49 71.5t15 79q0 74 -55 129.5t-150 55.5q-96 0 -154 -67q-49 -57 -49 -130q0 -13 9.5 -22.5t22.5 -9.5t22 9.5t9 22.5q0 47 35.5 90.5t104.5 43.5
q68 0 104.5 -37t36.5 -85q0 -31 -12.5 -58.5t-41 -56t-50.5 -46t-65 -48.5l-60 -44t-53.5 -46.5t-49 -55.5t-30 -60.5t-13.5 -73.5q0 -14 9 -23t23 -9h403z" />
    <glyph glyph-name="three" unicode="3" horiz-adv-x="509" 
d="M254 0q105 0 165 60.5t60 142.5q0 69 -35.5 109t-97.5 64q107 48 107 150q0 73 -53 126.5t-146 53.5q-92 0 -145 -53.5t-53 -126.5q0 -14 9 -23t23 -9q13 0 22.5 9.5t9.5 22.5q0 47 35 82t99 35q65 0 100 -35t35 -82q0 -49 -33.5 -71.5t-112.5 -45.5l-3 -1
q-25 -4 -28 -27q-3 -28 23 -36l8 -2q48 -14 73 -23.5t51.5 -25.5t37 -38t10.5 -53q0 -56 -41.5 -97.5t-119.5 -41.5q-77 0 -118.5 41.5t-41.5 97.5q0 13 -9 22.5t-23 9.5q-13 0 -22.5 -9.5t-9.5 -22.5q0 -82 60 -142.5t164 -60.5z" />
    <glyph glyph-name="four" unicode="4" horiz-adv-x="495" 
d="M433 232q13 0 22.5 -9t9.5 -23t-9.5 -23t-22.5 -9h-97v-136q0 -14 -9 -23t-23 -9q-13 0 -22.5 9.5t-9.5 22.5v136h-210q-17 0 -26 14q-10 15 -4 29l179 475q5 12 16.5 17t24.5 1q12 -5 17.5 -16.5t0.5 -24.5l-162 -431h164v104q0 13 9.5 22t22.5 9t22.5 -9t9.5 -22v-104
h97z" />
    <glyph glyph-name="five" unicode="5" horiz-adv-x="499" 
d="M250 0q102 0 160.5 59.5t58.5 139.5q0 40 -14 71.5t-31.5 49.5t-51 34t-53.5 22t-59 16q-84 22 -117.5 44t-33.5 73v134h262v-38q0 -13 9.5 -22.5t22.5 -9.5t22.5 9.5t9.5 22.5v69q0 13 -9.5 22.5t-22.5 9.5h-326q-13 0 -22.5 -9t-9.5 -23v-165q0 -36 13 -65t30.5 -46
t48.5 -31.5t51.5 -20.5t55.5 -15q88 -23 124.5 -48t36.5 -84q0 -54 -40 -94.5t-115 -40.5t-115.5 40.5t-40.5 94.5q0 13 -9 22.5t-23 9.5t-23 -9.5t-9 -22.5q0 -80 58.5 -139.5t161.5 -59.5z" />
    <glyph glyph-name="six" unicode="6" horiz-adv-x="489" 
d="M244 406q92 0 153.5 -58t61.5 -145t-61.5 -145t-153.5 -58t-153 58t-61 145q0 134 54 250t145.5 184.5t197.5 68.5q13 0 22.5 -9.5t9.5 -22.5t-9.5 -22t-22.5 -9q-134 0 -233 -130q-47 -62 -73 -142q54 35 123 35zM244 64q64 0 107.5 40t43.5 99t-43.5 99t-107.5 40
t-107 -40t-43 -99t43 -99t107 -40z" />
    <glyph glyph-name="seven" unicode="7" horiz-adv-x="498" 
d="M107 0q20 0 28 17l329 643q8 17 -1 31q-9 15 -27 15h-374q-14 0 -23 -9t-9 -23q0 -13 9.5 -22t22.5 -9h322l-306 -597q-6 -11 -1.5 -23.5t15.5 -18.5q7 -4 15 -4z" />
    <glyph glyph-name="eight" unicode="8" horiz-adv-x="488" 
d="M359 376q46 -27 72.5 -72.5t26.5 -100.5q0 -87 -61 -145t-153 -58t-153 58t-61 145q0 55 26.5 100.5t72.5 72.5q-77 54 -77 148q0 78 55 130t137 52t137 -52t55 -130q0 -94 -77 -148zM116 524q0 -51 36.5 -84.5t91.5 -33.5t91.5 33.5t36.5 84.5q0 52 -36 85.5t-92 33.5
t-92 -33.5t-36 -85.5zM244 64q64 0 107 40t43 99t-43 99t-107 40t-107.5 -40t-43.5 -99t43.5 -99t107.5 -40z" />
    <glyph glyph-name="nine" unicode="9" horiz-adv-x="488" 
d="M244 706q92 0 153 -58t61 -145q0 -134 -53.5 -250t-145 -184.5t-197.5 -68.5q-14 0 -23 9t-9 23q0 13 9.5 22.5t22.5 9.5q134 0 232 129q49 64 74 143q-55 -36 -124 -36q-91 0 -152.5 58.5t-61.5 144.5q0 87 61 145t153 58zM244 364q64 0 107.5 40t43.5 99q0 60 -43 100
t-108 40q-64 0 -107 -40t-43 -100q0 -59 43 -99t107 -40z" />
    <glyph glyph-name="colon" unicode=":" horiz-adv-x="146" 
d="M73 342q-18 0 -30.5 -11.5t-12.5 -28.5q0 -18 12.5 -29.5t30.5 -11.5t30.5 11.5t12.5 29.5q0 17 -12.5 28.5t-30.5 11.5zM73 66q-18 0 -30.5 -11.5t-12.5 -28.5q0 -18 12.5 -29.5t30.5 -11.5t30.5 11.5t12.5 29.5q0 17 -12.5 28.5t-30.5 11.5z" />
    <glyph glyph-name="semicolon" unicode=";" horiz-adv-x="146" 
d="M73 342q-18 0 -30.5 -11.5t-12.5 -28.5q0 -18 12.5 -29.5t30.5 -11.5t30.5 11.5t12.5 29.5q0 17 -12.5 28.5t-30.5 11.5zM73 86q-18 0 -30.5 -11.5t-12.5 -28.5q0 -21 13 -46t30 -25t30 25t13 46q0 17 -12.5 28.5t-30.5 11.5z" />
    <glyph glyph-name="less" unicode="&#x3c;" horiz-adv-x="300" 
d="M238 243q20 0 28 18q6 11 2 24t-16 18l-119 60l119 59q12 6 16 19t-2 24q-5 12 -18 16t-24 -1l-176 -88q-18 -10 -18 -29t18 -29l176 -88q6 -3 14 -3z" />
    <glyph glyph-name="equal" unicode="=" horiz-adv-x="348" 
d="M286 322q14 0 23 9t9 23q0 13 -9.5 22.5t-22.5 9.5h-224q-13 0 -22.5 -9.5t-9.5 -22.5t9.5 -22.5t22.5 -9.5h224zM286 194q14 0 23 9t9 23q0 13 -9.5 22.5t-22.5 9.5h-224q-13 0 -22.5 -9.5t-9.5 -22.5t9.5 -22.5t22.5 -9.5h224z" />
    <glyph glyph-name="greater" unicode="&#x3e;" horiz-adv-x="300" 
d="M62 243q8 0 14 3l176 88q18 10 18 29t-18 29l-176 88q-11 5 -24 1t-18 -16q-6 -11 -2 -24t16 -19l119 -59l-119 -60q-12 -5 -16 -18t2 -24q8 -18 28 -18z" />
    <glyph glyph-name="question" unicode="?" horiz-adv-x="468" 
d="M219 143q13 0 22.5 9.5t9.5 22.5q0 46 12.5 78t26.5 45.5t44 35.5q25 18 38 30t31 35.5t26.5 55.5t8.5 74q0 75 -54.5 130.5t-149.5 55.5q-98 0 -154 -67q-50 -56 -50 -131q0 -13 9.5 -22.5t22.5 -9.5t22.5 9.5t9.5 22.5q0 48 35.5 91t104.5 43q67 0 103.5 -36.5
t36.5 -85.5q0 -41 -12 -69t-25 -41t-41 -33q-25 -19 -38.5 -31.5t-33 -37.5t-28.5 -60.5t-9 -81.5q0 -13 9.5 -22.5t22.5 -9.5zM219 81q-18 0 -30.5 -11.5t-12.5 -28.5q0 -18 12.5 -29.5t30.5 -11.5t30.5 11.5t12.5 29.5q0 17 -12.5 28.5t-30.5 11.5z" />
    <glyph glyph-name="at" unicode="@" horiz-adv-x="766" 
d="M383 706q146 0 249.5 -103.5t103.5 -249.5t-104 -250q-9 -9 -22 -9t-23 9l-109 110q-43 -30 -95 -30q-71 0 -120.5 49.5t-49.5 120.5t49.5 120.5t120.5 49.5q70 0 120 -50t50 -120q0 -52 -30 -95l86 -86q63 78 63 181q0 120 -85 205t-204 85q-120 0 -205 -85t-85 -205
q0 -119 85 -204t205 -85q13 0 22.5 -9.5t9.5 -22.5t-9.5 -22.5t-22.5 -9.5q-146 0 -249.5 103.5t-103.5 249.5t103.5 249.5t249.5 103.5zM276 353q0 -44 31.5 -75t75.5 -31q43 0 74.5 31.5t31.5 74.5q0 44 -31 75t-75 31t-75.5 -31t-31.5 -75z" />
    <glyph glyph-name="A" unicode="A" horiz-adv-x="687" 
d="M654 45q5 -12 0.5 -24.5t-16.5 -17.5q-8 -3 -13 -3q-21 0 -29 19l-75 170h-355l-74 -170q-5 -12 -17.5 -16.5t-24.5 0.5t-17 17.5t0 24.5l281 642q10 19 30 19q21 0 29 -19zM194 253h299l-149 342z" />
    <glyph glyph-name="B" unicode="B" horiz-adv-x="591" 
d="M449 380q50 -25 81 -73.5t31 -106.5q0 -82 -58.5 -141t-141.5 -59h-299q-14 0 -23 9t-9 23v642q0 14 9 23t23 9h268q76 0 130.5 -54t54.5 -130q0 -86 -66 -142zM451 522q0 50 -35.5 85.5t-85.5 35.5h-236v-243h236q50 0 85.5 36t35.5 86zM361 64q56 0 96 40t40 96
t-40 96.5t-96 40.5h-267v-273h267z" />
    <glyph glyph-name="C" unicode="C" horiz-adv-x="687" 
d="M383 0q77 0 146.5 31.5t119.5 89.5q9 10 8 23t-11 22q-10 8 -23 7.5t-22 -10.5q-86 -99 -218 -99q-119 0 -204 85t-85 204q0 120 85 205t204 85q132 0 218 -99q9 -10 22 -11t23 8q10 8 11 21t-8 24q-50 57 -120 88.5t-146 31.5q-146 0 -249.5 -103.5t-103.5 -249.5
t103.5 -249.5t249.5 -103.5z" />
    <glyph glyph-name="D" unicode="D" horiz-adv-x="607" 
d="M224 0q146 0 249.5 103.5t103.5 249.5t-103.5 249.5t-249.5 103.5h-162q-14 0 -23 -9t-9 -23v-642q0 -14 9 -23t23 -9h162zM94 64v579h130q120 0 205 -85t85 -205q0 -119 -85 -204t-205 -85h-130z" />
    <glyph glyph-name="E" unicode="E" horiz-adv-x="543" 
d="M481 64q13 0 22.5 -9.5t9.5 -22.5t-9.5 -22.5t-22.5 -9.5h-419q-14 0 -23 9t-9 23v642q0 14 9 23t23 9h419q13 0 22.5 -9.5t9.5 -22.5t-9.5 -22t-22.5 -9h-387v-243h279q13 0 22.5 -9t9.5 -22t-9.5 -22.5t-22.5 -9.5h-279v-273h387z" />
    <glyph glyph-name="F" unicode="F" horiz-adv-x="543" 
d="M481 706q13 0 22.5 -9.5t9.5 -22.5t-9.5 -22t-22.5 -9h-387v-243h279q13 0 22.5 -9t9.5 -22t-9.5 -22.5t-22.5 -9.5h-279v-305q0 -13 -9.5 -22.5t-22.5 -9.5q-14 0 -23 9t-9 23v642q0 14 9 23t23 9h419z" />
    <glyph glyph-name="G" unicode="G" horiz-adv-x="687" 
d="M383 0q77 0 146.5 31.5t119.5 89.5q8 10 8 21v186q0 14 -9.5 23t-22.5 9h-217q-14 0 -23 -9t-9 -23t9 -23t23 -9h185v-142q-85 -90 -210 -90q-119 0 -204 85t-85 204q0 120 85 205t204 85q132 0 218 -99q9 -10 22 -11t23 8q10 8 11 21t-8 24q-50 57 -120 88.5t-146 31.5
q-146 0 -249.5 -103.5t-103.5 -249.5t103.5 -249.5t249.5 -103.5z" />
    <glyph glyph-name="H" unicode="H" horiz-adv-x="606" 
d="M544 706q13 0 22.5 -9.5t9.5 -22.5v-642q0 -13 -9.5 -22.5t-22.5 -9.5q-14 0 -23 9t-9 23v264h-418v-264q0 -13 -9.5 -22.5t-22.5 -9.5q-14 0 -23 9t-9 23v642q0 14 9 23t23 9q13 0 22.5 -9.5t9.5 -22.5v-314h418v314q0 14 9 23t23 9z" />
    <glyph glyph-name="I" unicode="I" horiz-adv-x="134" 
d="M67 0q13 0 22.5 9t9.5 23v642q0 14 -9.5 23t-22.5 9t-22.5 -9t-9.5 -23v-642q0 -14 9.5 -23t22.5 -9z" />
    <glyph glyph-name="J" unicode="J" horiz-adv-x="425" 
d="M202 0q80 0 136.5 56.5t56.5 136.5v481q0 13 -9.5 22.5t-22.5 9.5t-22.5 -9t-9.5 -23v-481q0 -53 -38 -91t-91 -38q-35 0 -65.5 17.5t-47.5 48.5q-6 12 -19 15.5t-24 -2.5q-11 -7 -15 -19.5t3 -24.5q26 -46 71 -72.5t97 -26.5z" />
    <glyph glyph-name="K" unicode="K" horiz-adv-x="547" 
d="M507 54q10 -9 10 -22t-10 -23q-9 -9 -22 -9q-14 0 -23 9l-313 314l-55 -55v-236q0 -14 -9 -23t-23 -9t-23 9t-9 23v642q0 14 9 23t23 9t23 -9t9 -23v-315l338 338q10 9 23 9t23 -9q9 -9 9 -22.5t-9 -22.5l-284 -284z" />
    <glyph glyph-name="L" unicode="L" horiz-adv-x="475" 
d="M413 0q13 0 22.5 9t9.5 23q0 13 -9.5 22.5t-22.5 9.5h-319v610q0 14 -9 23t-23 9q-13 0 -22.5 -9.5t-9.5 -22.5v-642q0 -13 9.5 -22.5t22.5 -9.5h351z" />
    <glyph glyph-name="M" unicode="M" horiz-adv-x="702" 
d="M640 0q13 0 22.5 9.5t9.5 22.5v642q0 24 -23 31t-36 -13l-262 -390l-263 390q-12 20 -35 13t-23 -31v-642q0 -14 9 -23t23 -9t23 9t9 23v538l230 -343q9 -14 27 -14q17 0 26 14l231 343v-538q0 -14 9 -23t23 -9z" />
    <glyph glyph-name="N" unicode="N" horiz-adv-x="630" 
d="M568 0q3 0 11 2q21 6 21 30v642q0 14 -9 23t-23 9q-13 0 -22.5 -9.5t-9.5 -22.5v-550l-449 570q-13 18 -35 11q-22 -8 -22 -31v-642q0 -14 9 -23t23 -9t23 9t9 23v550l449 -570q9 -12 25 -12z" />
    <glyph glyph-name="O" unicode="O" horiz-adv-x="766" 
d="M383 0q146 0 249.5 103.5t103.5 249.5t-103.5 249.5t-249.5 103.5t-249.5 -103.5t-103.5 -249.5t103.5 -249.5t249.5 -103.5zM383 643q120 0 204.5 -85t84.5 -205q0 -119 -84.5 -204t-204.5 -85t-204.5 85t-84.5 204q0 120 84.5 205t204.5 85z" />
    <glyph glyph-name="P" unicode="P" horiz-adv-x="552" 
d="M276 706q102 0 174 -72t72 -175q0 -102 -72 -174t-174 -72h-182v-181q0 -14 -9 -23t-23 -9t-23 9t-9 23v642q0 14 9 23t23 9h214zM276 276q75 0 129 54t54 129q0 76 -54 130t-129 54h-182v-367h182z" />
    <glyph glyph-name="Q" unicode="Q" horiz-adv-x="766" 
d="M727 54q9 -9 9 -22t-9 -23q-9 -9 -23 -9q-13 0 -22 9l-73 73q-98 -82 -226 -82q-146 0 -249.5 103.5t-103.5 249.5t103.5 249.5t249.5 103.5t249.5 -103.5t103.5 -249.5q0 -128 -82 -226zM94 353q0 -119 85 -204t204 -85q120 0 205 85t85 204q0 120 -85 205t-205 85
q-119 0 -204 -85t-85 -205z" />
    <glyph glyph-name="R" unicode="R" horiz-adv-x="552" 
d="M342 222l162 -168q9 -10 9 -23t-10 -22q-9 -9 -22 -9q-14 0 -23 10l-196 203h-168v-181q0 -14 -9 -23t-23 -9t-23 9t-9 23v642q0 14 9 23t23 9h214q102 0 174 -72t72 -175q0 -84 -50.5 -149.5t-129.5 -87.5zM94 643v-367h182q76 0 129.5 54t53.5 129q0 76 -53.5 130
t-129.5 54h-182z" />
    <glyph glyph-name="S" unicode="S" horiz-adv-x="499" 
d="M249 0q102 0 161 59.5t59 139.5q0 40 -14 71.5t-31.5 50.5t-51 35.5t-53 23.5t-58.5 18q-34 10 -53 16.5t-41 17t-32.5 22t-18 28.5t-7.5 39q0 48 36.5 85t103.5 37q68 0 104.5 -37t36.5 -85q0 -13 9 -22.5t23 -9.5t23 9.5t9 22.5q0 75 -54.5 130t-150.5 55
q-95 0 -149.5 -55.5t-54.5 -129.5q0 -36 13.5 -65.5t29.5 -46.5t48.5 -33t51 -22t55.5 -17q45 -13 69 -22t48.5 -24.5t34.5 -37.5t10 -54q0 -54 -40.5 -94.5t-115.5 -40.5t-115 40.5t-40 94.5q0 13 -9.5 22.5t-22.5 9.5q-14 0 -23 -9.5t-9 -22.5q0 -80 58.5 -139.5
t160.5 -59.5z" />
    <glyph glyph-name="T" unicode="T" horiz-adv-x="601" 
d="M539 706q13 0 22.5 -9t9.5 -23q0 -13 -9.5 -22t-22.5 -9h-207v-611q0 -13 -9 -22.5t-22 -9.5t-22.5 9t-9.5 23v611h-207q-13 0 -22.5 9t-9.5 22q0 14 9 23t23 9h477z" />
    <glyph glyph-name="U" unicode="U" horiz-adv-x="627" 
d="M313 0q118 0 201 83t83 201v390q0 14 -9.5 23t-22.5 9t-22.5 -9t-9.5 -23v-390q0 -92 -64.5 -156t-155.5 -64t-155.5 64.5t-64.5 155.5v390q0 14 -9.5 23t-22.5 9t-22 -9.5t-9 -22.5v-390q0 -118 83 -201t200 -83z" />
    <glyph glyph-name="V" unicode="V" horiz-adv-x="599" 
d="M299 0q22 0 30 21l238 642q4 13 -1.5 24.5t-17.5 16.5q-13 4 -24.5 -1t-16.5 -17l-208 -562l-208 562q-5 12 -16.5 17t-24.5 1q-12 -5 -17.5 -16.5t-0.5 -24.5l237 -642q8 -21 30 -21z" />
    <glyph glyph-name="W" unicode="W" horiz-adv-x="897" 
d="M642 0h1q23 0 30 23l193 642q4 13 -2 24.5t-19 15.5t-24.5 -2t-15.5 -19l-166 -552l-160 427q-8 20 -30 20t-30 -20l-160 -427l-167 552q-4 13 -15 19t-24 2t-19.5 -15.5t-2.5 -24.5l194 -642q7 -23 29 -23q23 0 31 21l164 436l163 -436q8 -21 30 -21z" />
    <glyph glyph-name="X" unicode="X" horiz-adv-x="630" 
d="M356 353l237 -301q8 -10 6.5 -23.5t-11.5 -21.5q-8 -7 -20 -7q-14 0 -25 12l-228 290l-228 -290q-9 -12 -25 -12q-12 0 -20 7q-10 8 -11.5 21t6.5 24l238 301l-238 302q-8 11 -6.5 24t11.5 21t23.5 6t21.5 -12l228 -289l228 289q8 10 21.5 12t23.5 -6t11.5 -21.5
t-6.5 -23.5z" />
    <glyph glyph-name="Y" unicode="Y" horiz-adv-x="565" 
d="M520 701q11 -7 14 -20.5t-5 -24.5l-215 -313v-311q0 -14 -9 -23t-23 -9q-13 0 -22.5 9.5t-9.5 22.5v311l-214 313q-7 11 -5 24t13 21t24.5 5t20.5 -14l193 -282l194 282q7 11 20.5 14t23.5 -5z" />
    <glyph glyph-name="Z" unicode="Z" horiz-adv-x="633" 
d="M572 0q13 0 22 9.5t9 22.5t-9 22.5t-22 9.5h-446l453 591q11 16 3 34q-10 17 -29 17h-457q-14 0 -23 -9t-9 -23q0 -13 9.5 -22t22.5 -9h393l-452 -592q-13 -14 -4 -33q10 -18 29 -18h510z" />
    <glyph glyph-name="bracketleft" unicode="[" horiz-adv-x="244" 
d="M182 -90q14 0 23 9t9 23q0 13 -9.5 22.5t-22.5 9.5h-88v757h88q13 0 22.5 9.5t9.5 22.5t-9 22.5t-23 9.5h-120q-14 0 -23 -9.5t-9 -22.5v-821q0 -14 9 -23t23 -9h120z" />
    <glyph glyph-name="backslash" unicode="\" horiz-adv-x="351" 
d="M300 3q13 4 18.5 16t0.5 25l-227 622q-4 13 -16 18.5t-25 0.5q-13 -4 -18.5 -16t-0.5 -25l227 -622q4 -13 16 -18.5t25 -0.5z" />
    <glyph glyph-name="bracketright" unicode="]" horiz-adv-x="244" 
d="M62 -90h120q14 0 23 9t9 23v821q0 13 -9 22.5t-23 9.5h-120q-14 0 -23 -9.5t-9 -22.5t9.5 -22.5t22.5 -9.5h88v-757h-88q-13 0 -22.5 -9.5t-9.5 -22.5q0 -14 9 -23t23 -9z" />
    <glyph glyph-name="asciicircum" unicode="^" horiz-adv-x="300" 
d="M30 595q0 -20 18 -28q11 -6 24 -2t18 16l60 119l59 -119q6 -12 19 -16t24 2q12 5 16 18t-1 24l-88 176q-10 18 -29 18t-29 -18l-88 -176q-3 -6 -3 -14z" />
    <glyph glyph-name="underscore" unicode="_" horiz-adv-x="444" 
d="M382 -92q14 0 23 9t9 23t-9 23t-23 9h-320q-14 0 -23 -9t-9 -23t9 -23t23 -9h320z" />
    <glyph glyph-name="grave" unicode="`" horiz-adv-x="260" 
d="M197 592q25 0 32 25q2 13 -5 24t-20 14l-135 30q-13 2 -24 -5t-14 -20q-2 -13 5 -24t20 -14l135 -30h6z" />
    <glyph glyph-name="a" unicode="a" horiz-adv-x="571" 
d="M509 540q13 0 22.5 -9t9.5 -22v-477q0 -14 -9.5 -23t-22.5 -9t-22.5 9t-9.5 23v56q-74 -88 -192 -88q-109 0 -182 77.5t-73 192.5t73 192.5t182 77.5q118 0 192 -87v56q0 13 9.5 22t22.5 9zM285 64q82 0 137 59t55 147q0 89 -55 148t-137 59t-136.5 -59t-54.5 -148
q0 -88 54.5 -147t136.5 -59z" />
    <glyph glyph-name="b" unicode="b" horiz-adv-x="571" 
d="M285 540q110 0 183 -77.5t73 -192.5t-73 -192.5t-183 -77.5q-117 0 -191 88v-56q0 -13 -9.5 -22.5t-22.5 -9.5q-14 0 -23 9t-9 23v642q0 14 9 23t23 9q13 0 22.5 -9.5t9.5 -22.5v-221q74 87 191 87zM285 64q82 0 137 59t55 147q0 89 -55 148t-137 59t-136.5 -59
t-54.5 -148q0 -88 54.5 -147t136.5 -59z" />
    <glyph glyph-name="c" unicode="c" horiz-adv-x="527" 
d="M285 0q63 0 117 28t89 79q8 10 5.5 23.5t-13.5 20.5q-10 8 -23.5 5.5t-20.5 -13.5q-56 -79 -154 -79q-82 0 -137 59t-55 147t55 147.5t137 59.5q98 0 154 -80q8 -11 20.5 -13t23.5 5t13.5 20.5t-5.5 24.5q-35 51 -89 78.5t-117 27.5q-109 0 -182 -77.5t-73 -192.5
t73 -192.5t182 -77.5z" />
    <glyph glyph-name="d" unicode="d" horiz-adv-x="571" 
d="M510 706q13 0 22 -9.5t9 -22.5v-642q0 -13 -9 -22.5t-22 -9.5q-14 0 -23 9t-9 23v56q-74 -88 -192 -88q-110 0 -183 77.5t-73 192.5t73 192.5t183 77.5q118 0 192 -87v221q0 14 9 23t23 9zM286 64q82 0 137 59t55 147t-55 147.5t-137 59.5t-137 -59.5t-55 -147.5t55 -147
t137 -59z" />
    <glyph glyph-name="e" unicode="e" horiz-adv-x="566" 
d="M290 0q67 0 123.5 31.5t91.5 88.5q7 11 3.5 24t-14.5 20t-24 4t-20 -14q-53 -90 -160 -90q-74 0 -126.5 49t-63.5 125h399q13 0 22.5 9.5t9.5 22.5q0 118 -69.5 194t-176.5 76q-111 0 -182 -80q-68 -77 -68 -190q0 -116 73 -193t182 -77zM100 302q10 78 61 126.5
t124 48.5t122 -48t58 -127h-365z" />
    <glyph glyph-name="f" unicode="f" horiz-adv-x="345" 
d="M283 510q13 0 22.5 -9t9.5 -23q0 -13 -9.5 -22.5t-22.5 -9.5h-126v-414q0 -13 -9.5 -22.5t-22.5 -9.5t-22.5 9t-9.5 23v414h-31q-13 0 -22.5 9.5t-9.5 22.5q0 14 9 23t23 9h31v46q0 62 43.5 105.5t105.5 43.5q29 0 53 -10q12 -5 17 -16.5t1 -24.5q-5 -12 -17 -17.5
t-24 -0.5q-17 5 -30 5q-35 0 -60 -25t-25 -60v-46h126z" />
    <glyph glyph-name="g" unicode="g" horiz-adv-x="571" 
d="M509 540q13 0 22.5 -9t9.5 -22v-519q0 -110 -77.5 -187.5t-187.5 -77.5q-73 0 -135.5 36.5t-96.5 100.5q-7 11 -3 23.5t15 19.5t24 3t19 -15q27 -48 74.5 -76t102.5 -28q83 0 142 59t59 142v98q-74 -88 -192 -88q-109 0 -182 77t-73 193t73 193t182 77q118 0 192 -87v56
q0 13 9.5 22t22.5 9zM285 64q82 0 137 59t55 147t-55 147.5t-137 59.5t-137 -59.5t-55 -147.5t55 -147t137 -59z" />
    <glyph glyph-name="h" unicode="h" horiz-adv-x="497" 
d="M249 540q93 0 155.5 -66t62.5 -164v-278q0 -14 -9.5 -23t-22.5 -9t-22.5 9.5t-9.5 22.5v278q0 71 -44 119t-110 48t-110.5 -48t-44.5 -119v-5v-3v-270q0 -14 -9 -23t-23 -9q-13 0 -22.5 9.5t-9.5 22.5v642q0 13 9.5 22.5t22.5 9.5q14 0 23 -9t9 -23v-198q62 64 155 64z
" />
    <glyph glyph-name="i" unicode="i" horiz-adv-x="140" 
d="M70 659q-14 0 -24.5 -10t-10.5 -24t10.5 -24t24.5 -10q15 0 25 10t10 24t-10 24t-25 10zM70 0q14 0 23 9t9 23v477q0 13 -9.5 22t-22.5 9t-22.5 -9t-9.5 -22v-477q0 -13 9.5 -22.5t22.5 -9.5z" />
    <glyph glyph-name="j" unicode="j" horiz-adv-x="310" 
d="M244 658q-14 0 -24.5 -10t-10.5 -24t10.5 -24t24.5 -10q15 0 25.5 10t10.5 24t-10.5 24t-25.5 10zM147 -134q53 0 91 38t38 91v513q0 14 -9 23t-23 9q-13 0 -22 -9.5t-9 -22.5v-513q0 -27 -19.5 -46t-46.5 -19q-37 0 -57 33q-7 12 -19.5 15.5t-23.5 -2.5
q-12 -7 -15.5 -19.5t2.5 -23.5q37 -67 113 -67z" />
    <glyph glyph-name="k" unicode="k" horiz-adv-x="457" 
d="M421 51q17 -26 -7 -45q-9 -6 -19 -6q-15 0 -26 13l-158 216q-49 -23 -117 -27v-170q0 -14 -9 -23t-23 -9t-23 9t-9 23v642q0 14 9 23t23 9t23 -9t9 -23v-409q63 6 110 31q2 2 4 3q96 54 142 218q3 13 14.5 19.5t24.5 2.5t19.5 -15t2.5 -24q-48 -168 -144 -239z" />
    <glyph glyph-name="l" unicode="l" horiz-adv-x="134" 
d="M67 706q13 0 22.5 -9t9.5 -23v-642q0 -14 -9.5 -23t-22.5 -9t-22.5 9t-9.5 23v642q0 14 9.5 23t22.5 9z" />
    <glyph glyph-name="m" unicode="m" horiz-adv-x="821" 
d="M592 540q86 0 142.5 -65t56.5 -165v-278q0 -14 -9.5 -23t-22.5 -9t-22.5 9t-9.5 23v278q0 74 -37.5 120.5t-97.5 46.5q-65 0 -107.5 -47.5t-42.5 -119.5v-5v-3v-270q0 -14 -9 -23t-23 -9q-13 0 -22 9.5t-9 22.5v278q0 73 -38 120t-97 47q-65 0 -107.5 -47.5t-42.5 -119.5
v-5v-3v-270q0 -13 -9.5 -22.5t-22.5 -9.5q-14 0 -23 9t-9 23v477q0 13 9.5 22t22.5 9t22.5 -9t9.5 -22v-31q60 62 150 62q54 0 98 -27t70 -75q10 18 24 33q60 69 156 69z" />
    <glyph glyph-name="n" unicode="n" horiz-adv-x="496" 
d="M409 471q57 -65 57 -161v-278q0 -13 -9 -22.5t-22 -9.5t-22.5 9t-9.5 23v278q0 72 -42.5 119.5t-107.5 47.5q-67 0 -113.5 -48.5t-46.5 -118.5v-5v-3v-270q0 -14 -9.5 -23t-22.5 -9t-22 9.5t-9 22.5v477q0 13 9 22t22 9t22.5 -9t9.5 -22v-36q65 67 160 67q96 0 156 -69z
" />
    <glyph glyph-name="o" unicode="o" 
d="M300 0q112 0 191 79t79 191t-79 191t-191 79t-191 -79t-79 -191t79 -191t191 -79zM300 477q85 0 145.5 -60.5t60.5 -146.5t-60 -146t-146 -60t-146 60t-60 146t60.5 146.5t145.5 60.5z" />
    <glyph glyph-name="p" unicode="p" horiz-adv-x="571" 
d="M286 540q109 0 182 -77.5t73 -192.5t-73 -192.5t-182 -77.5q-118 0 -192 88v-331q0 -13 -9 -22.5t-23 -9.5q-13 0 -22.5 9.5t-9.5 22.5v752q0 13 9.5 22t22.5 9t22.5 -9t9.5 -22v-56q74 87 192 87zM286 64q82 0 137 59t55 147t-55 147.5t-137 59.5t-137 -59t-55 -148
q0 -88 55 -147t137 -59z" />
    <glyph glyph-name="q" unicode="q" horiz-adv-x="571" 
d="M509 540q13 0 22.5 -9.5t9.5 -22.5v-751q0 -13 -9.5 -22.5t-22.5 -9.5t-22.5 9.5t-9.5 22.5v331q-74 -88 -192 -88q-109 0 -182 77.5t-73 192.5t73 192.5t182 77.5q118 0 192 -88v56q0 14 9.5 23t22.5 9zM285 64q82 0 137 59t55 147t-55 147.5t-137 59.5t-137 -59.5
t-55 -147.5t55 -147t137 -59z" />
    <glyph glyph-name="r" unicode="r" horiz-adv-x="310" 
d="M248 540q13 0 22.5 -9t9.5 -22t-9 -22.5t-23 -9.5q-66 0 -110.5 -48t-44.5 -119v-5v-3v-270q0 -14 -9.5 -23t-22.5 -9t-22 9.5t-9 22.5v477q0 13 9 22t22 9t22.5 -9t9.5 -22v-33q62 64 155 64z" />
    <glyph glyph-name="s" unicode="s" horiz-adv-x="401" 
d="M195 0q79 0 130 49q46 46 46 107q0 33 -11.5 59t-26 40.5t-41.5 27.5t-42.5 17.5t-45.5 12.5q-63 15 -86.5 30.5t-23.5 50.5q0 30 25.5 56.5t75.5 26.5q36 0 59.5 -14.5t33.5 -34.5q6 -12 18.5 -16.5t24.5 1.5q12 5 16.5 17.5t-1.5 24.5q-19 40 -59 62.5t-92 22.5
q-74 0 -122 -46q-43 -43 -43 -100q0 -30 10.5 -53t24 -36.5t39 -25t40.5 -16t44 -12.5q68 -17 93.5 -35t25.5 -60q0 -37 -30 -64.5t-82 -27.5q-40 0 -67 16t-37 39q-5 12 -17.5 16.5t-24.5 -0.5q-12 -6 -16.5 -18.5t0.5 -24.5q19 -43 62.5 -67.5t99.5 -24.5z" />
    <glyph glyph-name="t" unicode="t" horiz-adv-x="355" 
d="M314 90q10 -8 11 -21.5t-7 -23.5q-39 -45 -98 -45q-54 0 -92 38t-38 91v348h-29q-13 0 -22 9.5t-9 22.5t9 22t22 9h29v102q0 13 9.5 22.5t22.5 9.5q14 0 23 -9t9 -23v-102h113q13 0 22.5 -9t9.5 -22t-9.5 -22.5t-22.5 -9.5h-113v-348q0 -27 19.5 -46t46.5 -19q31 0 49 23
q9 10 22 11t23 -8z" />
    <glyph glyph-name="u" unicode="u" horiz-adv-x="497" 
d="M435 540q13 0 22.5 -9t9.5 -22v-477q0 -14 -9.5 -23t-22.5 -9t-22.5 9t-9.5 23v36q-65 -68 -159 -68q-95 0 -156 69q-58 66 -58 162v278q0 13 9.5 22t22.5 9t22.5 -9t9.5 -22v-278q0 -73 42.5 -120t107.5 -47q67 0 113 48.5t46 118.5v4v3v271q0 13 9.5 22t22.5 9z" />
    <glyph glyph-name="v" unicode="v" horiz-adv-x="507" 
d="M254 0q22 0 29 20l192 477q5 12 -0.5 24.5t-17.5 16.5q-12 5 -24.5 0t-16.5 -18l-162 -402l-162 402q-4 13 -16.5 18t-24.5 0q-13 -4 -18 -16.5t0 -24.5l191 -477q8 -20 30 -20z" />
    <glyph glyph-name="w" unicode="w" horiz-adv-x="744" 
d="M527 0h1q23 2 29 22l156 477q4 12 -2 24t-19 16q-12 4 -24 -2t-16 -19l-128 -394l-123 299q-8 19 -29 19q-22 0 -30 -19l-122 -299l-128 394q-4 13 -16 19t-25 2q-12 -5 -18 -16.5t-2 -23.5l155 -477q6 -20 29 -22q23 0 31 20l126 306l126 -306q8 -20 29 -20z" />
    <glyph glyph-name="x" unicode="x" horiz-adv-x="502" 
d="M292 270l173 -218q8 -11 6.5 -24t-11.5 -21q-8 -7 -20 -7q-16 0 -25 12l-164 207l-164 -207q-9 -12 -25 -12q-12 0 -20 7q-10 8 -11.5 21t6.5 24l173 218l-173 219q-8 11 -6.5 24t11.5 21t23.5 6t21.5 -12l164 -206l164 206q8 10 21.5 12t23.5 -6t11.5 -21t-6.5 -24z" />
    <glyph glyph-name="y" unicode="y" horiz-adv-x="503" 
d="M441 540q13 0 22.5 -9t9.5 -22v-550q0 -97 -68.5 -165.5t-165.5 -68.5q-64 0 -119 32.5t-86 88.5q-6 11 -2.5 23.5t15.5 19.5q11 6 24 2.5t19 -15.5q22 -40 62 -63.5t87 -23.5q71 0 120.5 49.5t49.5 120.5v107q-64 -66 -157 -66q-95 0 -158.5 67t-63.5 167v275
q0 13 9.5 22t22.5 9t22.5 -9t9.5 -22v-275q0 -73 45 -121.5t113 -48.5q67 0 112 48.5t45 121.5v275q0 13 9.5 22t22.5 9z" />
    <glyph glyph-name="z" unicode="z" horiz-adv-x="534" 
d="M472 0q13 0 22.5 9.5t9.5 22.5t-9.5 22.5t-22.5 9.5h-342l356 424q13 16 5 34t-29 18h-377q-13 0 -22.5 -9t-9.5 -22t9.5 -22.5t22.5 -9.5h308l-356 -425q-12 -14 -4 -34q8 -18 29 -18h410z" />
    <glyph glyph-name="braceleft" unicode="{" horiz-adv-x="223" 
d="M161 0q4 0 10 2q13 4 19 15.5t1 24.5q-44 136 -49 285q0 16 -12 26q12 12 13 27q3 140 48 285q5 12 -1 23.5t-19 16.5q-13 4 -24.5 -2t-15.5 -19q-46 -141 -52 -286l-4 -1q-11 -5 -16 -7t-13.5 -7.5t-12 -12.5t-3.5 -17q0 -18 12 -27t33 -16q1 0 2 -1t2 -1
q6 -143 52 -286q7 -22 30 -22z" />
    <glyph glyph-name="bar" unicode="|" horiz-adv-x="124" 
d="M62 -120q14 0 23 9t9 23v762q0 14 -9 23t-23 9t-23 -9t-9 -23v-762q0 -14 9 -23t23 -9z" />
    <glyph glyph-name="braceright" unicode="}" horiz-adv-x="223" 
d="M62 0q23 0 30 22q46 143 52 286l2 1l2 1q14 5 21.5 8.5t15.5 12.5t8 22q0 10 -3.5 17t-12 12.5t-13.5 7.5t-16 7l-4 1q-6 145 -52 286q-4 13 -15.5 19t-24.5 2q-13 -5 -19 -16.5t-1 -23.5q45 -145 48 -285q1 -15 13 -27q-12 -10 -12 -26q-5 -149 -49 -285
q-4 -13 1.5 -24.5t18.5 -15.5q6 -2 10 -2z" />
    <glyph glyph-name="asciitilde" unicode="~" horiz-adv-x="399" 
d="M269 255q28 0 54 21q8 7 15 7q13 0 22 9.5t9 22.5t-9 22.5t-22 9.5q-29 0 -55 -21q-8 -7 -14 -7q-7 0 -15 7q-26 21 -54 21q-26 0 -55 -21q-8 -7 -14 -7t-15 7q-26 21 -54 21q-13 0 -22.5 -9.5t-9.5 -22.5t9 -22.5t23 -9.5q6 0 14 -7q29 -21 55 -21q28 0 54 21q9 7 15 7
t14 -7q26 -21 55 -21z" />
    <glyph glyph-name="exclamdown" unicode="&#xa1;" horiz-adv-x="146" 
d="M73 634q18 0 30.5 11.5t12.5 28.5q0 18 -12.5 29.5t-30.5 11.5t-30.5 -11.5t-12.5 -29.5q0 -17 12.5 -28.5t30.5 -11.5zM73 572q-13 0 -22.5 -9.5t-9.5 -22.5v-508q0 -13 9.5 -22.5t22.5 -9.5t22.5 9t9.5 23v508q0 14 -9.5 23t-22.5 9z" />
    <glyph glyph-name="cent" unicode="&#xa2;" horiz-adv-x="477" 
d="M436 244q10 -8 11 -21.5t-8 -23.5q-70 -80 -176 -80q-13 0 -19 1l-11 -92q-1 -12 -10.5 -20t-21.5 -8h-3q-13 1 -21.5 11.5t-6.5 24.5l11 98q-67 25 -109 85t-42 134q0 89 58.5 155t144.5 77l11 93q1 13 11.5 21.5t23.5 6.5q13 -1 21.5 -11.5t6.5 -23.5l-10 -86
q84 -12 142 -78q9 -10 8 -23t-11 -22t-23 -8t-22 11q-40 47 -101 56l-39 -338h12q78 0 128 58q9 10 22 11t23 -8zM93 353q0 -50 26.5 -91t69.5 -62l37 319q-58 -13 -95.5 -59.5t-37.5 -106.5z" />
    <glyph glyph-name="sterling" unicode="&#xa3;" horiz-adv-x="510" 
d="M448 64q13 0 22.5 -9.5t9.5 -22.5t-9.5 -22.5t-22.5 -9.5h-386q-20 0 -28 18q-9 17 3 33q107 138 110 227q1 23 -5.5 46.5t-13.5 37.5t-21 39q-42 70 -42 120q0 74 54.5 129.5t149.5 55.5q98 0 154 -67q50 -56 50 -130q0 -13 -9.5 -22.5t-22.5 -9.5t-22.5 9.5t-9.5 22.5
q0 47 -35.5 90.5t-104.5 43.5q-67 0 -103.5 -37t-36.5 -85q0 -33 33 -88q30 -53 37 -75h141q14 0 23 -9t9 -23t-9 -23t-23 -9h-129q3 -100 -86 -230h323z" />
    <glyph glyph-name="yen" unicode="&#xa5;" horiz-adv-x="423" 
d="M387 449l-144 -209v-34h58q13 0 22 -9.5t9 -22.5t-9 -22.5t-22 -9.5h-58v-110q0 -13 -9 -22.5t-22 -9.5q-14 0 -23 9t-9 23v110h-57q-13 0 -22.5 9t-9.5 23t9.5 23t22.5 9h57v34l-144 209q-7 11 -5 24t13 21t24.5 5t20.5 -14l123 -179l122 179q8 11 21 14t24 -5t13 -21
t-5 -24z" />
    <glyph glyph-name="brokenbar" unicode="&#xa6;" horiz-adv-x="124" 
d="M62 310q14 0 23 9t9 23v332q0 14 -9 23t-23 9t-23 -9t-9 -23v-332q0 -14 9 -23t23 -9zM59 -120q13 0 22.5 9t9.5 23v292q0 14 -9.5 23t-22.5 9t-22.5 -9t-9.5 -23v-292q0 -14 9.5 -23t22.5 -9z" />
    <glyph glyph-name="section" unicode="&#xa7;" horiz-adv-x="426" 
d="M396 338q0 -50 -38 -83q-16 -14 -26 -19q64 -46 64 -111q0 -51 -38 -84q-44 -41 -122 -41q-18 0 -26 1q-77 7 -128.5 51t-51.5 103q0 13 9.5 22.5t22.5 9.5t22.5 -9.5t9.5 -22.5q0 -33 35 -59t87 -31q65 -6 99 23q17 17 17 37q0 32 -35.5 58.5t-86.5 31.5h-1
q-76 7 -127.5 51t-51.5 102q0 50 37 84q11 10 26 18q-63 47 -63 112q0 49 37 83q56 49 149 40q77 -8 128.5 -51.5t51.5 -101.5q0 -13 -9.5 -22.5t-22.5 -9.5q-14 0 -23 9t-9 23q0 32 -35.5 58.5t-86.5 31.5q-66 6 -100 -24q-16 -15 -16 -36q0 -33 35 -59.5t87 -30.5
q77 -8 128.5 -52t51.5 -102zM94 368q0 -32 35 -58.5t87 -31.5q65 -6 99 24q17 15 17 36q0 33 -35.5 59t-86.5 31q-7 1 -20 1q-52 0 -80 -25q-16 -15 -16 -36z" />
    <glyph glyph-name="dieresis" unicode="&#xa8;" horiz-adv-x="348" 
d="M82 687q-22 0 -37 -14t-15 -35t15 -35t37 -14q21 0 36.5 14t15.5 35t-15.5 35t-36.5 14zM267 687q-22 0 -37 -14t-15 -35t15 -35t37 -14q21 0 36 14t15 35t-15 35t-36 14z" />
    <glyph glyph-name="copyright" unicode="&#xa9;" horiz-adv-x="688" 
d="M344 0q130 0 222 92t92 222q0 128 -92 222q-92 92 -222 92t-222 -92q-92 -94 -92 -222q0 -130 92 -222t222 -92zM344 607q121 0 207 -86q86 -88 86 -207q0 -121 -86 -207q-84 -86 -207 -86t-207 86q-86 86 -86 207q0 119 86 207q86 86 207 86zM342 161q43 0 79.5 22
t55.5 59q5 9 -4 14q-10 6 -14 -4q-17 -32 -48.5 -51t-68.5 -19q-54 0 -92.5 38.5t-38.5 93.5q0 54 38.5 93t92.5 39q37 0 68.5 -19t48.5 -51q4 -10 14 -4q10 4 4 14q-19 37 -55.5 59t-79.5 22q-63 0 -107.5 -45t-44.5 -108q0 -64 44.5 -108.5t107.5 -44.5z" />
    <glyph glyph-name="guillemotleft" unicode="&#xab;" horiz-adv-x="349" 
d="M149 202q14 0 23 10q9 9 9 22t-9 23l-66 65l66 66q9 9 9 22t-9 23q-9 9 -22.5 9t-22.5 -9l-88 -88q-9 -9 -9 -23q0 -13 9 -22l88 -88q9 -10 22 -10zM287 202q14 0 23 10q9 9 9 22t-9 23l-66 65l66 66q9 9 9 22t-9 23q-10 9 -23 9t-22 -9l-88 -88q-10 -10 -10 -23
q0 -12 10 -22l88 -88q9 -10 22 -10z" />
    <glyph glyph-name="logicalnot" unicode="&#xac;" horiz-adv-x="420" 
d="M380 212q10 0 10 10v158q0 11 -10 11h-339q-11 0 -11 -11q0 -10 11 -10h329v-148q0 -10 10 -10z" />
    <glyph glyph-name="uni00AD" unicode="&#xad;" 
 />
    <glyph glyph-name="registered" unicode="&#xae;" horiz-adv-x="687" 
d="M565 536q92 -92 92 -222q0 -132 -92 -222q-92 -92 -221 -92q-130 0 -222 92t-92 222q0 128 92 222q91 91 222 91q130 0 221 -91zM551 107q85 85 85 207q0 120 -85 207q-87 85 -207 85q-122 0 -207 -85q-86 -86 -86 -207q0 -123 86 -207q84 -86 207 -86q121 0 207 86z
M450 381q0 -31 -21.5 -52.5t-51.5 -23.5l71 -119q6 -10 -3 -15q-2 -1 -6 -1q-6 0 -9 5l-78 130h-94v-125q0 -10 -10 -10q-11 0 -11 10v267q0 11 11 11h125q31 0 54 -23t23 -54zM373 326q23 0 39.5 16t16.5 39t-16.5 39.5t-39.5 16.5h-115v-111h97q3 2 6 0h12z" />
    <glyph glyph-name="macron" unicode="&#xaf;" horiz-adv-x="293" 
d="M232 607q13 0 22 9.5t9 22.5t-9 22.5t-22 9.5h-170q-14 0 -23 -9.5t-9 -22.5t9 -22.5t23 -9.5h170z" />
    <glyph glyph-name="degree" unicode="&#xb0;" horiz-adv-x="188" 
d="M94 553q27 0 45.5 18t18.5 44q0 27 -18.5 44.5t-45.5 17.5q-28 0 -46 -17.5t-18 -44.5q0 -26 18 -44t46 -18zM94 656q19 0 31 -11.5t12 -29.5q0 -17 -12 -29t-31 -12t-31.5 12t-12.5 29q0 18 12.5 29.5t31.5 11.5z" />
    <glyph glyph-name="plusminus" unicode="&#xb1;" horiz-adv-x="348" 
d="M62 301q-13 0 -22.5 9.5t-9.5 22.5t9.5 22.5t22.5 9.5h80v80q0 13 9.5 22.5t22.5 9.5t22.5 -9.5t9.5 -22.5v-80h80q13 0 22.5 -9.5t9.5 -22.5t-9 -22.5t-23 -9.5h-80v-80q0 -13 -9 -22.5t-23 -9.5q-13 0 -22.5 9.5t-9.5 22.5v80h-80zM286 154q13 0 22.5 -9.5t9.5 -22.5
q0 -14 -9 -23t-23 -9h-224q-13 0 -22.5 9.5t-9.5 22.5t9.5 22.5t22.5 9.5h224z" />
    <glyph glyph-name="acute" unicode="&#xb4;" 
d="M194 592h6l135 30q13 3 20 14t5 24q-3 13 -14 20t-24 5l-135 -30q-13 -3 -20 -14t-5 -24q7 -25 32 -25z" />
    <glyph glyph-name="uni00B5" unicode="&#xb5;" horiz-adv-x="496" 
d="M435 540q13 0 22 -9t9 -22v-477q0 -13 -9 -22.5t-22 -9.5t-22.5 9t-9.5 23v36q-66 -68 -160 -68q-90 0 -150 62v-239q0 -13 -9.5 -22.5t-22.5 -9.5t-22 9.5t-9 22.5v686q0 13 9 22t22 9t22.5 -9t9.5 -22v-278q0 -73 42.5 -120t107.5 -47q68 0 114 48.5t46 118.5v4v3v271
q0 13 9.5 22t22.5 9z" />
    <glyph glyph-name="paragraph" unicode="&#xb6;" horiz-adv-x="526" 
d="M485 611q11 0 11 -10v-684q0 -10 -11 -10q-10 0 -10 10v673h-93v-673q0 -10 -10 -10t-10 10v331h-156q-73 0 -124.5 53.5t-51.5 128.5t51.5 128t124.5 53h279zM206 269h156v321h-156q-64 0 -110 -47t-46 -113q0 -67 45.5 -114t110.5 -47z" />
    <glyph glyph-name="periodcentered" unicode="&#xb7;" horiz-adv-x="183" 
d="M92 307q-26 0 -44 -16.5t-18 -41.5t18 -41.5t44 -16.5t43.5 16.5t17.5 41.5t-17.5 41.5t-43.5 16.5z" />
    <glyph glyph-name="cedilla" unicode="&#xb8;" horiz-adv-x="230" 
d="M108 -210q38 0 65 27.5t27 65.5q0 30 -16.5 53.5t-43.5 33.5v35q0 13 -9.5 22.5t-22.5 9.5q-14 0 -23 -9.5t-9 -22.5v-61q0 -14 9 -23t23 -9q12 0 20.5 -8.5t8.5 -20.5t-8.5 -20.5t-20.5 -8.5q-14 0 -22 10q-9 10 -22 11t-23 -8t-11 -22t8 -23q29 -32 70 -32z" />
    <glyph glyph-name="guillemotright" unicode="&#xbb;" horiz-adv-x="349" 
d="M62 202q13 0 22 10l88 88q10 10 10 22q0 13 -10 23l-88 88q-9 9 -22 9t-23 -9q-9 -10 -9 -23t9 -22l66 -66l-66 -65q-9 -10 -9 -23t9 -22q9 -10 23 -10zM200 202q13 0 22 10l88 88q9 9 9 22q0 14 -9 23l-88 88q-9 9 -22.5 9t-22.5 -9q-9 -10 -9 -23t9 -22l66 -66l-66 -65
q-9 -10 -9 -23t9 -22q9 -10 23 -10z" />
    <glyph glyph-name="questiondown" unicode="&#xbf;" horiz-adv-x="468" 
d="M249 634q18 0 30.5 11.5t12.5 28.5q0 18 -12.5 29.5t-30.5 11.5t-30.5 -11.5t-12.5 -29.5q0 -17 12.5 -28.5t30.5 -11.5zM249 572q-13 0 -22.5 -9.5t-9.5 -22.5q0 -46 -12.5 -78t-26.5 -45.5t-44 -35.5q-25 -18 -38 -30t-31 -35.5t-26.5 -55.5t-8.5 -74
q0 -75 54.5 -130.5t149.5 -55.5q98 0 154 67q50 56 50 131q0 13 -9.5 22.5t-22.5 9.5t-22.5 -9.5t-9.5 -22.5q0 -48 -35.5 -91t-104.5 -43q-67 0 -103.5 36.5t-36.5 85.5q0 41 12 69t25 41t41 33q25 19 38.5 31.5t33 37.5t28.5 60.5t9 81.5q0 14 -9.5 23t-22.5 9z" />
    <glyph glyph-name="Agrave" unicode="&#xc0;" horiz-adv-x="687" 
d="M419 730q25 0 32 25q2 13 -5 24t-20 14l-135 30q-13 2 -24 -5t-14 -20q-2 -13 5 -24t20 -14l135 -30h6zM654 45q5 -12 0.5 -24.5t-16.5 -17.5q-8 -3 -13 -3q-21 0 -29 19l-75 170h-355l-74 -170q-5 -12 -17.5 -16.5t-24.5 0.5t-17 17.5t0 24.5l281 642q10 19 30 19
q21 0 29 -19zM194 253h299l-149 342z" />
    <glyph glyph-name="Aacute" unicode="&#xc1;" horiz-adv-x="687" 
d="M272 750h6l135 30q13 3 20 14t5 24q-3 13 -14 20t-24 5l-135 -30q-13 -3 -20 -14t-5 -24q7 -25 32 -25zM654 45q5 -12 0.5 -24.5t-16.5 -17.5q-8 -3 -13 -3q-21 0 -29 19l-75 170h-355l-74 -170q-5 -12 -17.5 -16.5t-24.5 0.5t-17 17.5t0 24.5l281 642q10 19 30 19
q21 0 29 -19zM194 253h299l-149 342z" />
    <glyph glyph-name="Acircumflex" unicode="&#xc2;" horiz-adv-x="687" 
d="M230 741q2 0 4.5 0.5t3.5 0.5l108 28l107 -28q13 -3 24 3.5t15 19.5q3 13 -3.5 24.5t-19.5 14.5l-115 30q-9 1 -16 0l-116 -30q-13 -3 -19.5 -14.5t-2.5 -24.5q2 -10 10.5 -17t19.5 -7zM654 45q5 -12 0.5 -24.5t-16.5 -17.5q-8 -3 -13 -3q-21 0 -29 19l-75 170h-355
l-74 -170q-5 -12 -17.5 -16.5t-24.5 0.5t-17 17.5t0 24.5l281 642q10 19 30 19q21 0 29 -19zM194 253h299l-149 342z" />
    <glyph glyph-name="Atilde" unicode="&#xc3;" horiz-adv-x="687" 
d="M415 725q28 0 54 21q9 7 15 7q14 0 23 9.5t9 22.5t-9.5 22.5t-22.5 9.5q-26 0 -55 -21q-8 -7 -14 -7t-14 7q-29 21 -55 21q-28 0 -54 -21q-9 -7 -15 -7t-14 7q-29 21 -55 21q-13 0 -22.5 -9.5t-9.5 -22.5t9.5 -22.5t22.5 -9.5q6 0 15 -7q26 -21 54 -21q26 0 55 21
q8 7 14 7t15 -7q26 -21 54 -21zM654 45q5 -12 0.5 -24.5t-16.5 -17.5q-8 -3 -13 -3q-21 0 -29 19l-75 170h-355l-74 -170q-5 -12 -17.5 -16.5t-24.5 0.5t-17 17.5t0 24.5l281 642q10 19 30 19q21 0 29 -19zM194 253h299l-149 342z" />
    <glyph glyph-name="Adieresis" unicode="&#xc4;" horiz-adv-x="687" 
d="M253 844q-22 0 -37 -14t-15 -35t15 -35t37 -14q21 0 36.5 14t15.5 35t-15.5 35t-36.5 14zM438 844q-22 0 -37 -14t-15 -35t15 -35t37 -14q21 0 36 14t15 35t-15 35t-36 14zM654 45q5 -12 0.5 -24.5t-16.5 -17.5q-8 -3 -13 -3q-21 0 -29 19l-75 170h-355l-74 -170
q-5 -12 -17.5 -16.5t-24.5 0.5t-17 17.5t0 24.5l281 642q10 19 30 19q21 0 29 -19zM194 253h299l-149 342z" />
    <glyph glyph-name="Aring" unicode="&#xc5;" horiz-adv-x="687" 
d="M346 744q35 0 59.5 23t24.5 57t-24.5 57.5t-59.5 23.5t-59 -23.5t-24 -57.5t24 -57t59 -23zM346 841q20 0 20 -17q0 -16 -20 -16q-19 0 -19 16q0 17 19 17zM654 45q5 -12 0.5 -24.5t-16.5 -17.5q-8 -3 -13 -3q-21 0 -29 19l-75 170h-355l-74 -170q-5 -12 -17.5 -16.5
t-24.5 0.5t-17 17.5t0 24.5l281 642q10 19 30 19q21 0 29 -19zM194 253h299l-149 342z" />
    <glyph glyph-name="AE" unicode="&#xc6;" horiz-adv-x="873" 
d="M811 64q13 0 22.5 -9.5t9.5 -22.5q0 -14 -9.5 -23t-22.5 -9h-389q-14 0 -23 9t-9 23v157h-203l-97 -173q-10 -16 -28 -16q-9 0 -16 4q-11 7 -14.5 19.5t2.5 23.5l360 643q10 16 28 16h389q13 0 22.5 -9t9.5 -23q0 -13 -9.5 -22t-22.5 -9h-358v-390h280q13 0 22.5 -9.5
t9.5 -22.5t-9.5 -22.5t-22.5 -9.5h-280v-125h358zM390 552l-168 -299h168v299z" />
    <glyph glyph-name="Ccedilla" unicode="&#xc7;" horiz-adv-x="687" 
d="M646 166q10 -9 11 -22t-8 -23q-93 -107 -233 -119v-22q27 -10 43.5 -33.5t16.5 -53.5q0 -38 -27 -65.5t-65 -27.5q-41 0 -70 32q-9 10 -8 23t11 22t23 8t22 -11q8 -10 22 -10q12 0 20.5 8.5t8.5 20.5t-8.5 20.5t-20.5 8.5q-14 0 -23 9t-9 23v47q-136 12 -229 113t-93 239
q0 146 103.5 249.5t249.5 103.5q76 0 146 -31.5t120 -88.5q9 -11 8 -24t-11 -21q-10 -9 -23 -8t-22 11q-86 99 -218 99q-119 0 -204 -85t-85 -205q0 -119 85 -204t204 -85q132 0 218 99q9 10 22 10.5t23 -7.5z" />
    <glyph glyph-name="Egrave" unicode="&#xc8;" horiz-adv-x="543" 
d="M345 754q25 0 32 25q2 13 -5 24t-20 14l-135 30q-13 2 -24 -5t-14 -20q-2 -13 5 -24t20 -14l135 -30h6zM481 64q13 0 22.5 -9.5t9.5 -22.5t-9.5 -22.5t-22.5 -9.5h-419q-14 0 -23 9t-9 23v642q0 14 9 23t23 9h419q13 0 22.5 -9.5t9.5 -22.5t-9.5 -22t-22.5 -9h-387v-243
h279q13 0 22.5 -9t9.5 -22t-9.5 -22.5t-22.5 -9.5h-279v-273h387z" />
    <glyph glyph-name="Eacute" unicode="&#xc9;" horiz-adv-x="543" 
d="M198 774h6l135 30q13 3 20 14t5 24q-3 13 -14 20t-24 5l-135 -30q-13 -3 -20 -14t-5 -24q7 -25 32 -25zM481 64q13 0 22.5 -9.5t9.5 -22.5t-9.5 -22.5t-22.5 -9.5h-419q-14 0 -23 9t-9 23v642q0 14 9 23t23 9h419q13 0 22.5 -9.5t9.5 -22.5t-9.5 -22t-22.5 -9h-387v-243
h279q13 0 22.5 -9t9.5 -22t-9.5 -22.5t-22.5 -9.5h-279v-273h387z" />
    <glyph glyph-name="Ecircumflex" unicode="&#xca;" horiz-adv-x="543" 
d="M156 765q2 0 4.5 0.5t3.5 0.5l108 28l107 -28q13 -3 24 3.5t15 19.5q3 13 -3.5 24.5t-19.5 14.5l-115 30q-9 1 -16 0l-116 -30q-13 -3 -19.5 -14.5t-2.5 -24.5q2 -10 10.5 -17t19.5 -7zM481 64q13 0 22.5 -9.5t9.5 -22.5t-9.5 -22.5t-22.5 -9.5h-419q-14 0 -23 9t-9 23
v642q0 14 9 23t23 9h419q13 0 22.5 -9.5t9.5 -22.5t-9.5 -22t-22.5 -9h-387v-243h279q13 0 22.5 -9t9.5 -22t-9.5 -22.5t-22.5 -9.5h-279v-273h387z" />
    <glyph glyph-name="Igrave" unicode="&#xcc;" horiz-adv-x="134" 
d="M140 754q25 0 32 25q2 13 -5 24t-20 14l-135 30q-13 2 -24 -5t-14 -20q-2 -13 5 -24t20 -14l135 -30h6zM67 0q13 0 22.5 9t9.5 23v642q0 14 -9.5 23t-22.5 9t-22.5 -9t-9.5 -23v-642q0 -14 9.5 -23t22.5 -9z" />
    <glyph glyph-name="Iacute" unicode="&#xcd;" horiz-adv-x="134" 
d="M-7 774h6l135 30q13 3 20 14t5 24q-3 13 -14 20t-24 5l-135 -30q-13 -3 -20 -14t-5 -24q7 -25 32 -25zM67 0q13 0 22.5 9t9.5 23v642q0 14 -9.5 23t-22.5 9t-22.5 -9t-9.5 -23v-642q0 -14 9.5 -23t22.5 -9z" />
    <glyph glyph-name="Icircumflex" unicode="&#xce;" horiz-adv-x="134" 
d="M-49 765q2 0 4.5 0.5t3.5 0.5l108 28l107 -28q13 -3 24 3.5t15 19.5q3 13 -3.5 24.5t-19.5 14.5l-115 30q-9 1 -16 0l-116 -30q-13 -3 -19.5 -14.5t-2.5 -24.5q2 -10 10.5 -17t19.5 -7zM67 0q13 0 22.5 9t9.5 23v642q0 14 -9.5 23t-22.5 9t-22.5 -9t-9.5 -23v-642
q0 -14 9.5 -23t22.5 -9z" />
    <glyph glyph-name="Idieresis" unicode="&#xcf;" horiz-adv-x="134" 
d="M-26 868q-22 0 -37 -14t-15 -35t15 -35t37 -14q21 0 36.5 14t15.5 35t-15.5 35t-36.5 14zM159 868q-22 0 -37 -14t-15 -35t15 -35t37 -14q21 0 36 14t15 35t-15 35t-36 14zM67 0q13 0 22.5 9t9.5 23v642q0 14 -9.5 23t-22.5 9t-22.5 -9t-9.5 -23v-642q0 -14 9.5 -23
t22.5 -9z" />
    <glyph glyph-name="Eth" unicode="&#xd0;" horiz-adv-x="659" 
d="M276 706q146 0 249.5 -103.5t103.5 -249.5t-103.5 -249.5t-249.5 -103.5h-162q-14 0 -23 9t-9 23v385h-47q-13 0 -22.5 9.5t-9.5 22.5t9.5 22.5t22.5 9.5h47v193q0 14 9 23t23 9h162zM276 64q120 0 205 85t85 204q0 120 -85 205t-205 85h-130v-162h59q13 0 22 -9.5
t9 -22.5t-9 -22.5t-22 -9.5h-59v-353h130z" />
    <glyph glyph-name="Ntilde" unicode="&#xd1;" horiz-adv-x="630" 
d="M381 721q28 0 54 21q9 7 15 7q14 0 23 9.5t9 22.5t-9.5 22.5t-22.5 9.5q-26 0 -55 -21q-8 -7 -14 -7t-14 7q-29 21 -55 21q-28 0 -54 -21q-9 -7 -15 -7t-14 7q-29 21 -55 21q-13 0 -22.5 -9.5t-9.5 -22.5t9.5 -22.5t22.5 -9.5q6 0 15 -7q26 -21 54 -21q26 0 55 21
q8 7 14 7t15 -7q26 -21 54 -21zM568 0q3 0 11 2q21 6 21 30v642q0 14 -9 23t-23 9q-13 0 -22.5 -9.5t-9.5 -22.5v-550l-449 570q-13 18 -35 11q-22 -8 -22 -31v-642q0 -14 9 -23t23 -9t23 9t9 23v550l449 -570q9 -12 25 -12z" />
    <glyph glyph-name="Ograve" unicode="&#xd2;" horiz-adv-x="766" 
d="M456 731q25 0 32 25q2 13 -5 24t-20 14l-135 30q-13 2 -24 -5t-14 -20q-2 -13 5 -24t20 -14l135 -30h6zM383 0q146 0 249.5 103.5t103.5 249.5t-103.5 249.5t-249.5 103.5t-249.5 -103.5t-103.5 -249.5t103.5 -249.5t249.5 -103.5zM383 643q120 0 204.5 -85t84.5 -205
q0 -119 -84.5 -204t-204.5 -85t-204.5 85t-84.5 204q0 120 84.5 205t204.5 85z" />
    <glyph glyph-name="Oacute" unicode="&#xd3;" horiz-adv-x="766" 
d="M309 751h6l135 30q13 3 20 14t5 24q-3 13 -14 20t-24 5l-135 -30q-13 -3 -20 -14t-5 -24q7 -25 32 -25zM383 0q146 0 249.5 103.5t103.5 249.5t-103.5 249.5t-249.5 103.5t-249.5 -103.5t-103.5 -249.5t103.5 -249.5t249.5 -103.5zM383 643q120 0 204.5 -85t84.5 -205
q0 -119 -84.5 -204t-204.5 -85t-204.5 85t-84.5 204q0 120 84.5 205t204.5 85z" />
    <glyph glyph-name="Ocircumflex" unicode="&#xd4;" horiz-adv-x="766" 
d="M267 742q2 0 4.5 0.5t3.5 0.5l108 28l107 -28q13 -3 24 3.5t15 19.5q3 13 -3.5 24.5t-19.5 14.5l-115 30q-9 1 -16 0l-116 -30q-13 -3 -19.5 -14.5t-2.5 -24.5q2 -10 10.5 -17t19.5 -7zM383 0q146 0 249.5 103.5t103.5 249.5t-103.5 249.5t-249.5 103.5t-249.5 -103.5
t-103.5 -249.5t103.5 -249.5t249.5 -103.5zM383 643q120 0 204.5 -85t84.5 -205q0 -119 -84.5 -204t-204.5 -85t-204.5 85t-84.5 204q0 120 84.5 205t204.5 85z" />
    <glyph glyph-name="Otilde" unicode="&#xd5;" horiz-adv-x="766" 
d="M452 726q28 0 54 21q9 7 15 7q13 0 22.5 9t9.5 23q0 13 -9.5 22.5t-22.5 9.5q-26 0 -55 -21q-8 -7 -14 -7t-14 7q-29 21 -55 21q-28 0 -54 -21q-9 -7 -15 -7t-14 7q-29 21 -55 21q-13 0 -22.5 -9.5t-9.5 -22.5t9.5 -22.5t22.5 -9.5q6 0 15 -7q26 -21 54 -21q26 0 55 21
q8 7 14 7t15 -7q26 -21 54 -21zM383 0q146 0 249.5 103.5t103.5 249.5t-103.5 249.5t-249.5 103.5t-249.5 -103.5t-103.5 -249.5t103.5 -249.5t249.5 -103.5zM383 643q120 0 204.5 -85t84.5 -205q0 -119 -84.5 -204t-204.5 -85t-204.5 85t-84.5 204q0 120 84.5 205t204.5 85
z" />
    <glyph glyph-name="Odieresis" unicode="&#xd6;" horiz-adv-x="766" 
d="M290 845q-22 0 -37 -14t-15 -35t15 -35t37 -14q21 0 36.5 14t15.5 35t-15.5 35t-36.5 14zM475 845q-22 0 -37 -14t-15 -35t15 -35t37 -14q21 0 36 14t15 35t-15 35t-36 14zM383 0q146 0 249.5 103.5t103.5 249.5t-103.5 249.5t-249.5 103.5t-249.5 -103.5t-103.5 -249.5
t103.5 -249.5t249.5 -103.5zM383 643q120 0 204.5 -85t84.5 -205q0 -119 -84.5 -204t-204.5 -85t-204.5 85t-84.5 204q0 120 84.5 205t204.5 85z" />
    <glyph glyph-name="multiply" unicode="&#xd7;" horiz-adv-x="282" 
d="M243 246q10 -9 9.5 -22.5t-9.5 -22.5q-10 -10 -23 -10t-22 10l-57 57l-57 -57q-9 -10 -22 -10t-23 10q-9 9 -9.5 22.5t9.5 22.5l57 57l-57 57q-9 9 -9.5 22t9.5 23q9 9 22.5 9t22.5 -9l57 -57l57 57q9 9 22.5 9t22.5 -9q10 -10 9.5 -23t-9.5 -22l-57 -57z" />
    <glyph glyph-name="Oslash" unicode="&#xd8;" horiz-adv-x="766" 
d="M635 600q101 -103 101 -247q0 -146 -103.5 -249.5t-249.5 -103.5q-144 0 -247 101q-2 2 -3 2l-2 3q-101 103 -101 247q0 146 103.5 249.5t249.5 103.5q144 0 247 -101l3 -2q0 -1 2 -3zM383 643q-120 0 -205 -85t-85 -205q0 -101 64 -181l407 407q-80 64 -181 64zM383 64
q119 0 204 85t85 204q0 100 -63 181l-407 -407q81 -63 181 -63z" />
    <glyph glyph-name="Ugrave" unicode="&#xd9;" horiz-adv-x="627" 
d="M386 745q25 0 32 25q2 13 -5 24t-20 14l-135 30q-13 2 -24 -5t-14 -20q-2 -13 5 -24t20 -14l135 -30h6zM313 0q118 0 201 83t83 201v390q0 14 -9.5 23t-22.5 9t-22.5 -9t-9.5 -23v-390q0 -92 -64.5 -156t-155.5 -64t-155.5 64.5t-64.5 155.5v390q0 14 -9.5 23t-22.5 9
t-22 -9.5t-9 -22.5v-390q0 -118 83 -201t200 -83z" />
    <glyph glyph-name="Uacute" unicode="&#xda;" horiz-adv-x="627" 
d="M239 765h6l135 30q13 3 20 14t5 24q-3 13 -14 20t-24 5l-135 -30q-13 -3 -20 -14t-5 -24q7 -25 32 -25zM313 0q118 0 201 83t83 201v390q0 14 -9.5 23t-22.5 9t-22.5 -9t-9.5 -23v-390q0 -92 -64.5 -156t-155.5 -64t-155.5 64.5t-64.5 155.5v390q0 14 -9.5 23t-22.5 9
t-22 -9.5t-9 -22.5v-390q0 -118 83 -201t200 -83z" />
    <glyph glyph-name="Ucircumflex" unicode="&#xdb;" horiz-adv-x="627" 
d="M197 756q2 0 4.5 0.5t3.5 0.5l108 28l107 -28q13 -3 24 3.5t15 19.5q3 13 -3.5 24.5t-19.5 14.5l-115 30q-9 1 -16 0l-116 -30q-13 -3 -19.5 -14.5t-2.5 -24.5q2 -10 10.5 -17t19.5 -7zM313 0q118 0 201 83t83 201v390q0 14 -9.5 23t-22.5 9t-22.5 -9t-9.5 -23v-390
q0 -92 -64.5 -156t-155.5 -64t-155.5 64.5t-64.5 155.5v390q0 14 -9.5 23t-22.5 9t-22 -9.5t-9 -22.5v-390q0 -118 83 -201t200 -83z" />
    <glyph glyph-name="Udieresis" unicode="&#xdc;" horiz-adv-x="627" 
d="M220 859q-22 0 -37 -14t-15 -35t15 -35t37 -14q21 0 36.5 14t15.5 35t-15.5 35t-36.5 14zM405 859q-22 0 -37 -14t-15 -35t15 -35t37 -14q21 0 36 14t15 35t-15 35t-36 14zM313 0q118 0 201 83t83 201v390q0 14 -9.5 23t-22.5 9t-22.5 -9t-9.5 -23v-390q0 -92 -64.5 -156
t-155.5 -64t-155.5 64.5t-64.5 155.5v390q0 14 -9.5 23t-22.5 9t-22 -9.5t-9 -22.5v-390q0 -118 83 -201t200 -83z" />
    <glyph glyph-name="Yacute" unicode="&#xdd;" horiz-adv-x="565" 
d="M208 738h6l135 30q13 3 20 14t5 24q-3 13 -14 20t-24 5l-135 -30q-13 -3 -20 -14t-5 -24q7 -25 32 -25zM520 701q11 -7 14 -20.5t-5 -24.5l-215 -313v-311q0 -14 -9 -23t-23 -9q-13 0 -22.5 9.5t-9.5 22.5v311l-214 313q-7 11 -5 24t13 21t24.5 5t20.5 -14l193 -282
l194 282q7 11 20.5 14t23.5 -5z" />
    <glyph glyph-name="Thorn" unicode="&#xde;" horiz-adv-x="552" 
d="M276 616q102 0 174 -72t72 -175q0 -102 -72 -174t-174 -72h-182v-91q0 -14 -9 -23t-23 -9t-23 9t-9 23v675q0 13 9 22.5t23 9.5t23 -9.5t9 -22.5v-91h182zM276 186q75 0 129 54t54 129q0 76 -54 130t-129 54h-182v-367h182z" />
    <glyph glyph-name="germandbls" unicode="&#xdf;" horiz-adv-x="515" 
d="M309 0q79 0 130 49q46 46 46 107q0 33 -11.5 59t-26 40.5t-41.5 27.5t-42.5 17.5t-45.5 12.5q-63 15 -86.5 30.5t-23.5 50.5q0 41 23.5 57.5t86.5 31.5q23 5 36.5 9t35 13t33 20t21 30t9.5 43q0 56 -45.5 90t-119.5 34q-121 0 -186 -73q-72 -79 -72 -243v-359
q0 -13 9 -22.5t22 -9.5t22.5 9.5t9.5 22.5v359q0 65 13 113t31.5 74t46.5 41.5t51.5 19.5t52.5 4q45 0 74 -16q27 -15 27 -44q0 -21 -17 -31t-68 -22l-42 -10t-41.5 -16t-39.5 -26.5t-25.5 -40t-11.5 -58.5q0 -30 11 -53t24.5 -36.5t39 -25.5t40.5 -16.5t43 -11.5
q68 -17 93.5 -35t25.5 -60q0 -37 -30 -64.5t-82 -27.5q-40 0 -67 16t-37 39q-5 12 -17.5 16.5t-24.5 -0.5q-12 -6 -16.5 -18.5t0.5 -24.5q19 -43 62.5 -67.5t99.5 -24.5z" />
    <glyph glyph-name="agrave" unicode="&#xe0;" horiz-adv-x="571" 
d="M358 596q25 0 32 25q2 13 -5 24t-20 14l-135 30q-13 2 -24 -5t-14 -20q-2 -13 5 -24t20 -14l135 -30h6zM509 540q13 0 22.5 -9t9.5 -22v-477q0 -14 -9.5 -23t-22.5 -9t-22.5 9t-9.5 23v56q-74 -88 -192 -88q-109 0 -182 77.5t-73 192.5t73 192.5t182 77.5q118 0 192 -87
v56q0 13 9.5 22t22.5 9zM285 64q82 0 137 59t55 147q0 89 -55 148t-137 59t-136.5 -59t-54.5 -148q0 -88 54.5 -147t136.5 -59z" />
    <glyph glyph-name="aacute" unicode="&#xe1;" horiz-adv-x="571" 
d="M211 604h6l135 30q13 3 20 14t5 24q-3 13 -14 20t-24 5l-135 -30q-13 -3 -20 -14t-5 -24q7 -25 32 -25zM509 540q13 0 22.5 -9t9.5 -22v-477q0 -14 -9.5 -23t-22.5 -9t-22.5 9t-9.5 23v56q-74 -88 -192 -88q-109 0 -182 77.5t-73 192.5t73 192.5t182 77.5q118 0 192 -87
v56q0 13 9.5 22t22.5 9zM285 64q82 0 137 59t55 147q0 89 -55 148t-137 59t-136.5 -59t-54.5 -148q0 -88 54.5 -147t136.5 -59z" />
    <glyph glyph-name="acircumflex" unicode="&#xe2;" horiz-adv-x="571" 
d="M169 601q2 0 4.5 0.5t3.5 0.5l108 28l107 -28q13 -3 24 3.5t15 19.5q3 13 -3.5 24.5t-19.5 14.5l-115 30q-9 1 -16 0l-116 -30q-13 -3 -19.5 -14.5t-2.5 -24.5q2 -10 10.5 -17t19.5 -7zM509 540q13 0 22.5 -9t9.5 -22v-477q0 -14 -9.5 -23t-22.5 -9t-22.5 9t-9.5 23v56
q-74 -88 -192 -88q-109 0 -182 77.5t-73 192.5t73 192.5t182 77.5q118 0 192 -87v56q0 13 9.5 22t22.5 9zM285 64q82 0 137 59t55 147q0 89 -55 148t-137 59t-136.5 -59t-54.5 -148q0 -88 54.5 -147t136.5 -59z" />
    <glyph glyph-name="atilde" unicode="&#xe3;" horiz-adv-x="571" 
d="M354 579q28 0 54 21q9 7 15 7q13 0 22.5 9.5t9.5 22.5t-9.5 22.5t-22.5 9.5q-26 0 -55 -21q-8 -7 -14 -7t-14 7q-29 21 -55 21q-28 0 -54 -21q-9 -7 -15 -7t-14 7q-29 21 -55 21q-13 0 -22.5 -9.5t-9.5 -22.5t9.5 -22.5t22.5 -9.5q6 0 15 -7q26 -21 54 -21q26 0 55 21
q8 7 14 7t15 -7q26 -21 54 -21zM509 540q13 0 22.5 -9t9.5 -22v-477q0 -14 -9.5 -23t-22.5 -9t-22.5 9t-9.5 23v56q-74 -88 -192 -88q-109 0 -182 77.5t-73 192.5t73 192.5t182 77.5q118 0 192 -87v56q0 13 9.5 22t22.5 9zM285 64q82 0 137 59t55 147q0 89 -55 148t-137 59
t-136.5 -59t-54.5 -148q0 -88 54.5 -147t136.5 -59z" />
    <glyph glyph-name="adieresis" unicode="&#xe4;" horiz-adv-x="571" 
d="M192 698q-22 0 -37 -14t-15 -35t15 -35t37 -14q21 0 36.5 14t15.5 35t-15.5 35t-36.5 14zM377 698q-22 0 -37 -14t-15 -35t15 -35t37 -14q21 0 36 14t15 35t-15 35t-36 14zM509 540q13 0 22.5 -9t9.5 -22v-477q0 -14 -9.5 -23t-22.5 -9t-22.5 9t-9.5 23v56
q-74 -88 -192 -88q-109 0 -182 77.5t-73 192.5t73 192.5t182 77.5q118 0 192 -87v56q0 13 9.5 22t22.5 9zM285 64q82 0 137 59t55 147q0 89 -55 148t-137 59t-136.5 -59t-54.5 -148q0 -88 54.5 -147t136.5 -59z" />
    <glyph glyph-name="aring" unicode="&#xe5;" horiz-adv-x="571" 
d="M285 591q35 0 59.5 23t24.5 57t-24.5 57.5t-59.5 23.5t-59 -23.5t-24 -57.5t24 -57t59 -23zM285 688q20 0 20 -17q0 -16 -20 -16q-19 0 -19 16q0 17 19 17zM509 540q13 0 22.5 -9t9.5 -22v-477q0 -14 -9.5 -23t-22.5 -9t-22.5 9t-9.5 23v56q-74 -88 -192 -88
q-109 0 -182 77.5t-73 192.5t73 192.5t182 77.5q118 0 192 -87v56q0 13 9.5 22t22.5 9zM285 64q82 0 137 59t55 147q0 89 -55 148t-137 59t-136.5 -59t-54.5 -148q0 -88 54.5 -147t136.5 -59z" />
    <glyph glyph-name="ae" unicode="&#xe6;" horiz-adv-x="1003" 
d="M973 270q0 -13 -9 -22.5t-22 -9.5h-399q10 -76 62.5 -125t127.5 -49q106 0 160 90q7 11 20 14t24 -4t14.5 -20t-3.5 -24q-35 -57 -91.5 -88.5t-123.5 -31.5q-118 0 -192 88v-56q0 -14 -9.5 -23t-22.5 -9t-22.5 9t-9.5 23v56q-74 -88 -192 -88q-109 0 -182 77.5t-73 192.5
t73 192.5t182 77.5q73 0 132 -36t92 -98q15 30 36 54q71 80 183 80q107 0 176 -76t69 -194zM285 64q82 0 137 59t55 147q0 89 -55 148t-137 59t-136.5 -59t-54.5 -148q0 -88 54.5 -147t136.5 -59zM543 302h365q-9 78 -58.5 126.5t-121.5 48.5q-74 0 -124.5 -48.5
t-60.5 -126.5z" />
    <glyph glyph-name="ccedilla" unicode="&#xe7;" horiz-adv-x="527" 
d="M483 151q11 -7 13.5 -20.5t-5.5 -23.5q-63 -91 -172 -105v-11q27 -10 43.5 -33.5t16.5 -53.5q0 -38 -27 -65.5t-65 -27.5q-41 0 -70 32q-9 10 -8 23t11 22t23 8t22 -11q8 -10 22 -10q12 0 20.5 8.5t8.5 20.5t-8.5 20.5t-20.5 8.5q-13 0 -22.5 9.5t-9.5 22.5v37
q-98 11 -161.5 86t-63.5 182q0 115 73 192.5t182 77.5q63 0 117 -27.5t89 -78.5q8 -11 5.5 -24.5t-13.5 -20.5t-23.5 -5t-20.5 13q-56 80 -154 80q-82 0 -137 -59.5t-55 -147.5t55 -147t137 -59q98 0 154 79q7 11 20.5 13.5t23.5 -5.5z" />
    <glyph glyph-name="egrave" unicode="&#xe8;" horiz-adv-x="566" 
d="M358 577q25 0 32 25q2 13 -5 24t-20 14l-135 30q-13 2 -24 -5t-14 -20q-2 -13 5 -24t20 -14l135 -30h6zM290 0q67 0 123.5 31.5t91.5 88.5q7 11 3.5 24t-14.5 20t-24 4t-20 -14q-53 -90 -160 -90q-74 0 -126.5 49t-63.5 125h399q13 0 22.5 9.5t9.5 22.5q0 118 -69.5 194
t-176.5 76q-111 0 -182 -80q-68 -77 -68 -190q0 -116 73 -193t182 -77zM100 302q10 78 61 126.5t124 48.5t122 -48t58 -127h-365z" />
    <glyph glyph-name="eacute" unicode="&#xe9;" horiz-adv-x="566" 
d="M211 585h6l135 30q13 3 20 14t5 24q-3 13 -14 20t-24 5l-135 -30q-13 -3 -20 -14t-5 -24q7 -25 32 -25zM290 0q67 0 123.5 31.5t91.5 88.5q7 11 3.5 24t-14.5 20t-24 4t-20 -14q-53 -90 -160 -90q-74 0 -126.5 49t-63.5 125h399q13 0 22.5 9.5t9.5 22.5q0 118 -69.5 194
t-176.5 76q-111 0 -182 -80q-68 -77 -68 -190q0 -116 73 -193t182 -77zM100 302q10 78 61 126.5t124 48.5t122 -48t58 -127h-365z" />
    <glyph glyph-name="ecircumflex" unicode="&#xea;" horiz-adv-x="566" 
d="M169 582q2 0 4.5 0.5t3.5 0.5l108 28l107 -28q13 -3 24 3.5t15 19.5q3 13 -3.5 24.5t-19.5 14.5l-115 30q-9 1 -16 0l-116 -30q-13 -3 -19.5 -14.5t-2.5 -24.5q2 -10 10.5 -17t19.5 -7zM290 0q67 0 123.5 31.5t91.5 88.5q7 11 3.5 24t-14.5 20t-24 4t-20 -14
q-53 -90 -160 -90q-74 0 -126.5 49t-63.5 125h399q13 0 22.5 9.5t9.5 22.5q0 118 -69.5 194t-176.5 76q-111 0 -182 -80q-68 -77 -68 -190q0 -116 73 -193t182 -77zM100 302q10 78 61 126.5t124 48.5t122 -48t58 -127h-365z" />
    <glyph glyph-name="edieresis" unicode="&#xeb;" horiz-adv-x="566" 
d="M192 679q-22 0 -37 -14t-15 -35t15 -35t37 -14q21 0 36.5 14t15.5 35t-15.5 35t-36.5 14zM377 679q-22 0 -37 -14t-15 -35t15 -35t37 -14q21 0 36 14t15 35t-15 35t-36 14zM290 0q67 0 123.5 31.5t91.5 88.5q7 11 3.5 24t-14.5 20t-24 4t-20 -14q-53 -90 -160 -90
q-74 0 -126.5 49t-63.5 125h399q13 0 22.5 9.5t9.5 22.5q0 118 -69.5 194t-176.5 76q-111 0 -182 -80q-68 -77 -68 -190q0 -116 73 -193t182 -77zM100 302q10 78 61 126.5t124 48.5t122 -48t58 -127h-365z" />
    <glyph glyph-name="igrave" unicode="&#xec;" 
d="M138 577q25 0 32 25q2 13 -5 24t-20 14l-135 30q-13 2 -24 -5t-14 -20q-2 -13 5 -24t20 -14l135 -30h6zM65 0q13 0 22.5 9t9.5 23v477q0 13 -9.5 22t-22.5 9t-22.5 -9t-9.5 -22v-477q0 -13 9.5 -22.5t22.5 -9.5z" />
    <glyph glyph-name="iacute" unicode="&#xed;" 
d="M-9 585h6l135 30q13 3 20 14t5 24q-3 13 -14 20t-24 5l-135 -30q-13 -3 -20 -14t-5 -24q7 -25 32 -25zM65 0q13 0 22.5 9t9.5 23v477q0 13 -9.5 22t-22.5 9t-22.5 -9t-9.5 -22v-477q0 -13 9.5 -22.5t22.5 -9.5z" />
    <glyph glyph-name="icircumflex" unicode="&#xee;" 
d="M-51 582q2 0 4.5 0.5t3.5 0.5l108 28l107 -28q13 -3 24 3.5t15 19.5q3 13 -3.5 24.5t-19.5 14.5l-115 30q-9 1 -16 0l-116 -30q-13 -3 -19.5 -14.5t-2.5 -24.5q2 -10 10.5 -17t19.5 -7zM65 0q13 0 22.5 9t9.5 23v477q0 13 -9.5 22t-22.5 9t-22.5 -9t-9.5 -22v-477
q0 -13 9.5 -22.5t22.5 -9.5z" />
    <glyph glyph-name="idieresis" unicode="&#xef;" 
d="M-28 679q-22 0 -37 -14t-15 -35t15 -35t37 -14q21 0 36.5 14t15.5 35t-15.5 35t-36.5 14zM157 679q-22 0 -37 -14t-15 -35t15 -35t37 -14q21 0 36 14t15 35t-15 35t-36 14zM65 0q13 0 22.5 9t9.5 23v477q0 13 -9.5 22t-22.5 9t-22.5 -9t-9.5 -22v-477q0 -13 9.5 -22.5
t22.5 -9.5z" />
    <glyph glyph-name="eth" unicode="&#xf0;" horiz-adv-x="620" 
d="M559 639q13 0 22 -9.5t9 -22.5t-9 -22.5t-22 -9.5h-18v-543q0 -13 -9 -22.5t-22 -9.5q-14 0 -23 9t-9 23v56q-74 -88 -192 -88q-110 0 -183 77.5t-73 192.5t73 192.5t183 77.5q118 0 192 -87v122h-89q-13 0 -22.5 9.5t-9.5 22.5t9.5 22.5t22.5 9.5h89v35q0 14 9 23t23 9
q13 0 22 -9.5t9 -22.5v-35h18zM286 64q82 0 137 59t55 147t-55 147.5t-137 59.5t-137 -59.5t-55 -147.5t55 -147t137 -59z" />
    <glyph glyph-name="ntilde" unicode="&#xf1;" horiz-adv-x="496" 
d="M322 558q28 0 54 21q9 7 15 7q13 0 22.5 9t9.5 23q0 13 -9.5 22.5t-22.5 9.5q-26 0 -55 -21q-8 -7 -14 -7t-14 7q-29 21 -55 21q-28 0 -54 -21q-9 -7 -15 -7t-14 7q-29 21 -55 21q-13 0 -22.5 -9.5t-9.5 -22.5t9.5 -22.5t22.5 -9.5q6 0 15 -7q26 -21 54 -21q26 0 55 21
q8 7 14 7t15 -7q26 -21 54 -21zM409 471q57 -65 57 -161v-278q0 -13 -9 -22.5t-22 -9.5t-22.5 9t-9.5 23v278q0 72 -42.5 119.5t-107.5 47.5q-67 0 -113.5 -48.5t-46.5 -118.5v-5v-3v-270q0 -14 -9.5 -23t-22.5 -9t-22 9.5t-9 22.5v477q0 13 9 22t22 9t22.5 -9t9.5 -22v-36
q65 67 160 67q96 0 156 -69z" />
    <glyph glyph-name="ograve" unicode="&#xf2;" 
d="M373 577q25 0 32 25q2 13 -5 24t-20 14l-135 30q-13 2 -24 -5t-14 -20q-2 -13 5 -24t20 -14l135 -30h6zM300 0q112 0 191 79t79 191t-79 191t-191 79t-191 -79t-79 -191t79 -191t191 -79zM300 477q85 0 145.5 -60.5t60.5 -146.5t-60 -146t-146 -60t-146 60t-60 146
t60.5 146.5t145.5 60.5z" />
    <glyph glyph-name="oacute" unicode="&#xf3;" 
d="M226 585h6l135 30q13 3 20 14t5 24q-3 13 -14 20t-24 5l-135 -30q-13 -3 -20 -14t-5 -24q7 -25 32 -25zM300 0q112 0 191 79t79 191t-79 191t-191 79t-191 -79t-79 -191t79 -191t191 -79zM300 477q85 0 145.5 -60.5t60.5 -146.5t-60 -146t-146 -60t-146 60t-60 146
t60.5 146.5t145.5 60.5z" />
    <glyph glyph-name="ocircumflex" unicode="&#xf4;" 
d="M184 582q2 0 4.5 0.5t3.5 0.5l108 28l107 -28q13 -3 24 3.5t15 19.5q3 13 -3.5 24.5t-19.5 14.5l-115 30q-9 1 -16 0l-116 -30q-13 -3 -19.5 -14.5t-2.5 -24.5q2 -10 10.5 -17t19.5 -7zM300 0q112 0 191 79t79 191t-79 191t-191 79t-191 -79t-79 -191t79 -191t191 -79z
M300 477q85 0 145.5 -60.5t60.5 -146.5t-60 -146t-146 -60t-146 60t-60 146t60.5 146.5t145.5 60.5z" />
    <glyph glyph-name="otilde" unicode="&#xf5;" 
d="M369 560q28 0 54 21q9 7 15 7q14 0 23 9t9 23q0 13 -9.5 22.5t-22.5 9.5q-26 0 -55 -21q-8 -7 -14 -7t-14 7q-29 21 -55 21q-28 0 -54 -21q-9 -7 -15 -7t-14 7q-29 21 -55 21q-13 0 -22.5 -9.5t-9.5 -22.5t9.5 -22.5t22.5 -9.5q6 0 15 -7q26 -21 54 -21q26 0 55 21
q8 7 14 7t15 -7q26 -21 54 -21zM300 0q112 0 191 79t79 191t-79 191t-191 79t-191 -79t-79 -191t79 -191t191 -79zM300 477q85 0 145.5 -60.5t60.5 -146.5t-60 -146t-146 -60t-146 60t-60 146t60.5 146.5t145.5 60.5z" />
    <glyph glyph-name="odieresis" unicode="&#xf6;" 
d="M207 679q-22 0 -37 -14t-15 -35t15 -35t37 -14q21 0 36.5 14t15.5 35t-15.5 35t-36.5 14zM392 679q-22 0 -37 -14t-15 -35t15 -35t37 -14q21 0 36 14t15 35t-15 35t-36 14zM300 0q112 0 191 79t79 191t-79 191t-191 79t-191 -79t-79 -191t79 -191t191 -79zM300 477
q85 0 145.5 -60.5t60.5 -146.5t-60 -146t-146 -60t-146 60t-60 146t60.5 146.5t145.5 60.5z" />
    <glyph glyph-name="divide" unicode="&#xf7;" horiz-adv-x="348" 
d="M173 457q-18 0 -30.5 -11.5t-12.5 -28.5q0 -18 12.5 -29.5t30.5 -11.5t30.5 11.5t12.5 29.5q0 17 -12.5 28.5t-30.5 11.5zM286 271q14 0 23 9.5t9 22.5t-9.5 22.5t-22.5 9.5h-224q-13 0 -22.5 -9.5t-9.5 -22.5t9.5 -22.5t22.5 -9.5h224zM173 231q-18 0 -30.5 -11.5
t-12.5 -28.5q0 -18 12.5 -29.5t30.5 -11.5t30.5 11.5t12.5 29.5q0 17 -12.5 28.5t-30.5 11.5z" />
    <glyph glyph-name="oslash" unicode="&#xf8;" 
d="M300 540q112 0 191 -79t79 -191t-79 -191t-191 -79t-191 79t-79 191t79 191t191 79zM300 476q-86 0 -146 -60t-60 -146q0 -69 39 -122l289 289q-53 39 -122 39zM300 63q85 0 145.5 60.5t60.5 146.5q0 68 -39 121l-289 -288q56 -40 122 -40z" />
    <glyph glyph-name="ugrave" unicode="&#xf9;" horiz-adv-x="497" 
d="M317 562q25 0 32 25q2 13 -5 24t-20 14l-135 30q-13 2 -24 -5t-14 -20q-2 -13 5 -24t20 -14l135 -30h6zM435 540q13 0 22.5 -9t9.5 -22v-477q0 -14 -9.5 -23t-22.5 -9t-22.5 9t-9.5 23v36q-65 -68 -159 -68q-95 0 -156 69q-58 66 -58 162v278q0 13 9.5 22t22.5 9t22.5 -9
t9.5 -22v-278q0 -73 42.5 -120t107.5 -47q67 0 113 48.5t46 118.5v4v3v271q0 13 9.5 22t22.5 9z" />
    <glyph glyph-name="uacute" unicode="&#xfa;" horiz-adv-x="497" 
d="M170 570h6l135 30q13 3 20 14t5 24q-3 13 -14 20t-24 5l-135 -30q-13 -3 -20 -14t-5 -24q7 -25 32 -25zM435 540q13 0 22.5 -9t9.5 -22v-477q0 -14 -9.5 -23t-22.5 -9t-22.5 9t-9.5 23v36q-65 -68 -159 -68q-95 0 -156 69q-58 66 -58 162v278q0 13 9.5 22t22.5 9t22.5 -9
t9.5 -22v-278q0 -73 42.5 -120t107.5 -47q67 0 113 48.5t46 118.5v4v3v271q0 13 9.5 22t22.5 9z" />
    <glyph glyph-name="ucircumflex" unicode="&#xfb;" horiz-adv-x="497" 
d="M128 567q2 0 4.5 0.5t3.5 0.5l108 28l107 -28q13 -3 24 3.5t15 19.5q3 13 -3.5 24.5t-19.5 14.5l-115 30q-9 1 -16 0l-116 -30q-13 -3 -19.5 -14.5t-2.5 -24.5q2 -10 10.5 -17t19.5 -7zM435 540q13 0 22.5 -9t9.5 -22v-477q0 -14 -9.5 -23t-22.5 -9t-22.5 9t-9.5 23v36
q-65 -68 -159 -68q-95 0 -156 69q-58 66 -58 162v278q0 13 9.5 22t22.5 9t22.5 -9t9.5 -22v-278q0 -73 42.5 -120t107.5 -47q67 0 113 48.5t46 118.5v4v3v271q0 13 9.5 22t22.5 9z" />
    <glyph glyph-name="udieresis" unicode="&#xfc;" horiz-adv-x="497" 
d="M151 664q-22 0 -37 -14t-15 -35t15 -35t37 -14q21 0 36.5 14t15.5 35t-15.5 35t-36.5 14zM336 664q-22 0 -37 -14t-15 -35t15 -35t37 -14q21 0 36 14t15 35t-15 35t-36 14zM435 540q13 0 22.5 -9t9.5 -22v-477q0 -14 -9.5 -23t-22.5 -9t-22.5 9t-9.5 23v36
q-65 -68 -159 -68q-95 0 -156 69q-58 66 -58 162v278q0 13 9.5 22t22.5 9t22.5 -9t9.5 -22v-278q0 -73 42.5 -120t107.5 -47q67 0 113 48.5t46 118.5v4v3v271q0 13 9.5 22t22.5 9z" />
    <glyph glyph-name="yacute" unicode="&#xfd;" horiz-adv-x="503" 
d="M178 583h6l135 30q13 3 20 14t5 24q-3 13 -14 20t-24 5l-135 -30q-13 -3 -20 -14t-5 -24q7 -25 32 -25zM441 540q13 0 22.5 -9t9.5 -22v-550q0 -97 -68.5 -165.5t-165.5 -68.5q-64 0 -119 32.5t-86 88.5q-6 11 -2.5 23.5t15.5 19.5q11 6 24 2.5t19 -15.5q22 -40 62 -63.5
t87 -23.5q71 0 120.5 49.5t49.5 120.5v107q-64 -66 -157 -66q-95 0 -158.5 67t-63.5 167v275q0 13 9.5 22t22.5 9t22.5 -9t9.5 -22v-275q0 -73 45 -121.5t113 -48.5q67 0 112 48.5t45 121.5v275q0 13 9.5 22t22.5 9z" />
    <glyph glyph-name="thorn" unicode="&#xfe;" 
d="M286 540q109 0 182 -77.5t73 -192.5t-73 -192.5t-182 -77.5q-118 0 -192 88v-331q0 -13 -9 -22.5t-23 -9.5q-13 0 -22.5 9.5t-9.5 22.5v922q0 13 9.5 22t22.5 9t22.5 -9t9.5 -22v-226q74 87 192 87zM286 64q82 0 137 59t55 147t-55 147.5t-137 59.5t-137 -59t-55 -148
q0 -88 55 -147t137 -59z" />
    <glyph glyph-name="ydieresis" unicode="&#xff;" horiz-adv-x="503" 
d="M159 677q-22 0 -37 -14t-15 -35t15 -35t37 -14q21 0 36.5 14t15.5 35t-15.5 35t-36.5 14zM344 677q-22 0 -37 -14t-15 -35t15 -35t37 -14q21 0 36 14t15 35t-15 35t-36 14zM441 540q13 0 22.5 -9t9.5 -22v-550q0 -97 -68.5 -165.5t-165.5 -68.5q-64 0 -119 32.5t-86 88.5
q-6 11 -2.5 23.5t15.5 19.5q11 6 24 2.5t19 -15.5q22 -40 62 -63.5t87 -23.5q71 0 120.5 49.5t49.5 120.5v107q-64 -66 -157 -66q-95 0 -158.5 67t-63.5 167v275q0 13 9.5 22t22.5 9t22.5 -9t9.5 -22v-275q0 -73 45 -121.5t113 -48.5q67 0 112 48.5t45 121.5v275
q0 13 9.5 22t22.5 9z" />
    <glyph glyph-name="dotlessi" unicode="&#x131;" 
d="M65 0q13 0 22.5 9t9.5 23v477q0 13 -9.5 22t-22.5 9t-22.5 -9t-9.5 -22v-477q0 -13 9.5 -22.5t22.5 -9.5z" />
    <glyph glyph-name="Lslash" unicode="&#x141;" horiz-adv-x="502" 
d="M440 64q13 0 22.5 -9.5t9.5 -22.5q0 -14 -9 -23t-23 -9h-301q-13 0 -22.5 9.5t-9.5 22.5v401h-45q-14 0 -23 9.5t-9 22.5t9 22.5t23 9.5h45v177q0 13 9.5 22.5t22.5 9.5t22.5 -9t9.5 -23v-177h61q13 0 22 -9.5t9 -22.5t-9 -22.5t-22 -9.5h-61v-369h269z" />
    <glyph glyph-name="lslash" unicode="&#x142;" horiz-adv-x="283" 
d="M251 476q4 -13 -1 -24.5t-17 -16.5l-60 -22v-381q0 -14 -9.5 -23t-22.5 -9t-22.5 9t-9.5 23v358l-36 -13q-13 -5 -25 0.5t-16 18.5q-5 13 0.5 25t18.5 16l58 21v216q0 14 9.5 23t22.5 9t22.5 -9t9.5 -23v-193l38 14q12 5 24 -0.5t16 -18.5z" />
    <glyph glyph-name="OE" unicode="&#x152;" horiz-adv-x="1016" 
d="M955 64q13 0 22 -9.5t9 -22.5t-9 -22.5t-22 -9.5h-571q-146 0 -250 103.5t-104 249.5t104 249.5t250 103.5h571q13 0 22 -9.5t9 -22.5t-9 -22t-22 -9h-387v-243h279q13 0 22.5 -9t9.5 -22t-9.5 -22.5t-22.5 -9.5h-279v-273h387zM94 353q0 -119 85 -204t205 -85h120v579
h-120q-120 0 -205 -85t-85 -205z" />
    <glyph glyph-name="oe" unicode="&#x153;" horiz-adv-x="1004" 
d="M974 270q0 -13 -9.5 -22.5t-22.5 -9.5h-399q11 -76 63.5 -125t126.5 -49q107 0 160 90q7 11 20 14t24 -4t14.5 -20t-3.5 -24q-35 -57 -91.5 -88.5t-123.5 -31.5q-73 0 -132 36.5t-92 98.5q-33 -62 -91.5 -98.5t-131.5 -36.5q-110 0 -183 77.5t-73 192.5t73 192.5
t183 77.5q73 0 131.5 -36t91.5 -98q15 30 36 54q71 80 183 80q107 0 176.5 -76t69.5 -194zM286 64q82 0 136.5 59t54.5 147q0 89 -54.5 148t-136.5 59t-137 -59t-55 -148q0 -88 55 -147t137 -59zM543 302h365q-9 78 -58.5 126.5t-121.5 48.5q-73 0 -124 -48.5t-61 -126.5z
" />
    <glyph glyph-name="Scaron" unicode="&#x160;" horiz-adv-x="499" 
d="M134 823q-11 0 -19.5 -7t-10.5 -17q-4 -13 2.5 -24.5t19.5 -14.5l116 -30q7 -1 16 0l115 30q13 3 19.5 14.5t3.5 24.5q-4 13 -15 19.5t-24 3.5l-107 -28l-108 28q-1 0 -3.5 0.5t-4.5 0.5zM249 0q102 0 161 59.5t59 139.5q0 40 -14 71.5t-31.5 50.5t-51 35.5t-53 23.5
t-58.5 18q-34 10 -53 16.5t-41 17t-32.5 22t-18 28.5t-7.5 39q0 48 36.5 85t103.5 37q68 0 104.5 -37t36.5 -85q0 -13 9 -22.5t23 -9.5t23 9.5t9 22.5q0 75 -54.5 130t-150.5 55q-95 0 -149.5 -55.5t-54.5 -129.5q0 -36 13.5 -65.5t29.5 -46.5t48.5 -33t51 -22t55.5 -17
q45 -13 69 -22t48.5 -24.5t34.5 -37.5t10 -54q0 -54 -40.5 -94.5t-115.5 -40.5t-115 40.5t-40 94.5q0 13 -9.5 22.5t-22.5 9.5q-14 0 -23 -9.5t-9 -22.5q0 -80 58.5 -139.5t160.5 -59.5z" />
    <glyph glyph-name="scaron" unicode="&#x161;" horiz-adv-x="401" 
d="M80 670q-11 0 -19.5 -7t-10.5 -17q-4 -13 2.5 -24.5t19.5 -14.5l116 -30q7 -1 16 0l115 30q13 3 19.5 14.5t3.5 24.5q-4 13 -15 19.5t-24 3.5l-107 -28l-108 28q-1 0 -3.5 0.5t-4.5 0.5zM195 0q79 0 130 49q46 46 46 107q0 33 -11.5 59t-26 40.5t-41.5 27.5t-42.5 17.5
t-45.5 12.5q-63 15 -86.5 30.5t-23.5 50.5q0 30 25.5 56.5t75.5 26.5q36 0 59.5 -14.5t33.5 -34.5q6 -12 18.5 -16.5t24.5 1.5q12 5 16.5 17.5t-1.5 24.5q-19 40 -59 62.5t-92 22.5q-74 0 -122 -46q-43 -43 -43 -100q0 -30 10.5 -53t24 -36.5t39 -25t40.5 -16t44 -12.5
q68 -17 93.5 -35t25.5 -60q0 -37 -30 -64.5t-82 -27.5q-40 0 -67 16t-37 39q-5 12 -17.5 16.5t-24.5 -0.5q-12 -6 -16.5 -18.5t0.5 -24.5q19 -43 62.5 -67.5t99.5 -24.5z" />
    <glyph glyph-name="Ydieresis" unicode="&#x178;" horiz-adv-x="565" 
d="M189 832q-22 0 -37 -14t-15 -35t15 -35t37 -14q21 0 36.5 14t15.5 35t-15.5 35t-36.5 14zM374 832q-22 0 -37 -14t-15 -35t15 -35t37 -14q21 0 36 14t15 35t-15 35t-36 14zM520 701q11 -7 14 -20.5t-5 -24.5l-215 -313v-311q0 -14 -9 -23t-23 -9q-13 0 -22.5 9.5
t-9.5 22.5v311l-214 313q-7 11 -5 24t13 21t24.5 5t20.5 -14l193 -282l194 282q7 11 20.5 14t23.5 -5z" />
    <glyph glyph-name="Zcaron" unicode="&#x17d;" horiz-adv-x="633" 
d="M210 863q-11 0 -19.5 -7t-10.5 -17q-4 -13 2.5 -24.5t19.5 -14.5l116 -30q7 -1 16 0l115 30q13 3 19.5 14.5t3.5 24.5q-4 13 -15 19.5t-24 3.5l-107 -28l-108 28q-1 0 -3.5 0.5t-4.5 0.5zM572 0q13 0 22 9.5t9 22.5t-9 22.5t-22 9.5h-446l453 591q11 16 3 34
q-10 17 -29 17h-457q-14 0 -23 -9t-9 -23q0 -13 9.5 -22t22.5 -9h393l-452 -592q-13 -14 -4 -33q10 -18 29 -18h510z" />
    <glyph glyph-name="zcaron" unicode="&#x17e;" horiz-adv-x="534" 
d="M153 707q-11 0 -19.5 -7t-10.5 -17q-4 -13 2.5 -24.5t19.5 -14.5l116 -30q7 -1 16 0l115 30q13 3 19.5 14.5t3.5 24.5q-4 13 -15 19.5t-24 3.5l-107 -28l-108 28q-1 0 -3.5 0.5t-4.5 0.5zM472 0q13 0 22.5 9.5t9.5 22.5t-9.5 22.5t-22.5 9.5h-342l356 424q13 16 5 34
t-29 18h-377q-13 0 -22.5 -9t-9.5 -22t9.5 -22.5t22.5 -9.5h308l-356 -425q-12 -14 -4 -34q8 -18 29 -18h410z" />
    <glyph glyph-name="florin" unicode="&#x192;" horiz-adv-x="407" 
d="M357 695q12 -5 17 -17t0 -25q-5 -12 -17 -17t-24 0q-15 5 -28 5q-37 0 -69.5 -27t-39.5 -64l-8 -40h120q14 0 23 -9t9 -23q0 -13 -9.5 -22.5t-22.5 -9.5h-132l-83 -420q-2 -11 -11 -18.5t-20 -7.5q-4 0 -6 1q-13 2 -20.5 13t-4.5 24l80 408h-24q-13 0 -22.5 9.5
t-9.5 22.5q0 14 9.5 23t22.5 9h37l10 53q11 59 61 100.5t110 41.5q29 0 52 -10z" />
    <glyph glyph-name="circumflex" unicode="&#x2c6;" horiz-adv-x="354" 
d="M61 564q2 0 4.5 0.5t3.5 0.5l108 28l107 -28q13 -3 24 3.5t15 19.5q3 13 -3.5 24.5t-19.5 14.5l-115 30q-9 1 -16 0l-116 -30q-13 -3 -19.5 -14.5t-2.5 -24.5q2 -10 10.5 -17t19.5 -7z" />
    <glyph glyph-name="caron" unicode="&#x2c7;" horiz-adv-x="354" 
d="M62 658q-11 0 -19.5 -7t-10.5 -17q-4 -13 2.5 -24.5t19.5 -14.5l116 -30q7 -1 16 0l115 30q13 3 19.5 14.5t3.5 24.5q-4 13 -15 19.5t-24 3.5l-107 -28l-108 28q-1 0 -3.5 0.5t-4.5 0.5z" />
    <glyph glyph-name="breve" unicode="&#x2d8;" 
d="M284 602q38 0 65.5 27t27.5 66q0 13 -9.5 22.5t-22.5 9.5t-22.5 -9.5t-9.5 -22.5q0 -12 -8.5 -21t-20.5 -9t-20.5 9t-8.5 21q0 13 -9.5 22.5t-22.5 9.5t-22.5 -9.5t-9.5 -22.5q0 -39 27.5 -66t65.5 -27z" />
    <glyph glyph-name="dotaccent" unicode="&#x2d9;" horiz-adv-x="164" 
d="M82 693q-22 0 -37 -14t-15 -35t15 -35t37 -14q21 0 36.5 14t15.5 35t-15.5 35t-36.5 14z" />
    <glyph glyph-name="ring" unicode="&#x2da;" horiz-adv-x="227" 
d="M113 575q35 0 59.5 23t24.5 57t-24.5 57.5t-59.5 23.5t-59 -23.5t-24 -57.5t24 -57t59 -23zM113 672q20 0 20 -17q0 -16 -20 -16q-19 0 -19 16q0 17 19 17z" />
    <glyph glyph-name="ogonek" unicode="&#x2db;" 
d="M333 7q8 24 -12 39q-12 6 -25 3t-20 -14l-72 -118q-7 -11 -4 -24t15 -20q11 -7 24 -4t20 15l72 117z" />
    <glyph glyph-name="tilde" unicode="&#x2dc;" horiz-adv-x="400" 
d="M269 596q28 0 54 21q9 7 15 7q14 0 23 9t9 23q0 13 -9.5 22.5t-22.5 9.5q-26 0 -55 -21q-8 -7 -14 -7t-14 7q-29 21 -55 21q-28 0 -54 -21q-9 -7 -15 -7t-14 7q-29 21 -55 21q-13 0 -22.5 -9.5t-9.5 -22.5t9.5 -22.5t22.5 -9.5q6 0 15 -7q26 -21 54 -21q26 0 55 21
q8 7 14 7t15 -7q26 -21 54 -21z" />
    <glyph glyph-name="hungarumlaut" unicode="&#x2dd;" horiz-adv-x="409" 
d="M73 590q2 0 6 2l115 76q12 7 14.5 20.5t-4.5 24.5t-20.5 13.5t-23.5 -4.5l-116 -76q-11 -7 -13.5 -20.5t3.5 -23.5q17 -22 39 -12zM243 590q2 0 6 2l115 76q12 7 14.5 20.5t-4.5 24.5t-20.5 13.5t-23.5 -4.5l-116 -76q-11 -7 -13.5 -20.5t3.5 -23.5q17 -22 39 -12z" />
    <glyph glyph-name="uni0394" unicode="&#x394;" horiz-adv-x="369" 
d="M329 0q5 0 9 4q2 6 1 9l-144 506q-3 7 -10 7q-8 0 -10 -7l-145 -506q0 -6 2 -9q4 -4 8 -4h289zM54 21l131 458l131 -458h-262z" />
    <glyph glyph-name="uni03A9" unicode="&#x3a9;" horiz-adv-x="747" 
d="M684 21q10 0 10 -11q0 -10 -10 -10h-621q-11 0 -11 10q0 11 11 11h194q-100 37 -163.5 128t-63.5 203q0 145 100.5 248.5t242.5 103.5t243 -103t101 -249q0 -112 -63.5 -203t-163.5 -128h194zM50 352q0 -137 94.5 -234t228.5 -97t228.5 97t94.5 234t-94.5 234t-228.5 97
t-228.5 -97t-94.5 -234z" />
    <glyph glyph-name="pi" unicode="&#x3c0;" horiz-adv-x="363" 
d="M323 0q10 0 10 11q0 10 -10 10h-27q-16 0 -16 16v227q0 10 -10 10h-229q-11 0 -11 -10v-227q0 -15 11 -26t26 -11h27q10 0 10 11q0 10 -10 10h-27q-16 0 -16 16v216h208v-216q0 -15 11 -26t26 -11h27z" />
    <glyph glyph-name="endash" unicode="&#x2013;" horiz-adv-x="444" 
d="M382 247q14 0 23 9.5t9 22.5t-9 22.5t-23 9.5h-320q-14 0 -23 -9.5t-9 -22.5t9 -22.5t23 -9.5h320z" />
    <glyph glyph-name="emdash" unicode="&#x2014;" horiz-adv-x="568" 
d="M506 247q14 0 23 9.5t9 22.5t-9 22.5t-23 9.5h-444q-14 0 -23 -9.5t-9 -22.5t9 -22.5t23 -9.5h444z" />
    <glyph glyph-name="quoteleft" unicode="&#x2018;" horiz-adv-x="146" 
d="M73 768q-18 0 -30.5 -11.5t-12.5 -28.5q0 -22 13.5 -51.5t29.5 -29.5t29.5 29.5t13.5 51.5q0 17 -12.5 28.5t-30.5 11.5z" />
    <glyph glyph-name="quoteright" unicode="&#x2019;" horiz-adv-x="146" 
d="M73 768q-18 0 -30.5 -11.5t-12.5 -28.5q0 -22 13.5 -51.5t29.5 -29.5t29.5 29.5t13.5 51.5q0 17 -12.5 28.5t-30.5 11.5z" />
    <glyph glyph-name="quotesinglbase" unicode="&#x201a;" horiz-adv-x="146" 
d="M73 37q-18 0 -30.5 -11.5t-12.5 -28.5q0 -22 13.5 -51.5t29.5 -29.5t29.5 29.5t13.5 51.5q0 17 -12.5 28.5t-30.5 11.5z" />
    <glyph glyph-name="quotedblleft" unicode="&#x201c;" horiz-adv-x="269" 
d="M196 770q-18 0 -30.5 -11.5t-12.5 -28.5q0 -22 13.5 -51.5t29.5 -29.5t29.5 29.5t13.5 51.5q0 17 -12.5 28.5t-30.5 11.5zM73 768q-18 0 -30.5 -11.5t-12.5 -28.5q0 -22 13.5 -51.5t29.5 -29.5t29.5 29.5t13.5 51.5q0 17 -12.5 28.5t-30.5 11.5z" />
    <glyph glyph-name="quotedblright" unicode="&#x201d;" horiz-adv-x="269" 
d="M196 770q-18 0 -30.5 -11.5t-12.5 -28.5q0 -22 13.5 -51.5t29.5 -29.5t29.5 29.5t13.5 51.5q0 17 -12.5 28.5t-30.5 11.5zM73 768q-18 0 -30.5 -11.5t-12.5 -28.5q0 -22 13.5 -51.5t29.5 -29.5t29.5 29.5t13.5 51.5q0 17 -12.5 28.5t-30.5 11.5z" />
    <glyph glyph-name="quotedblbase" unicode="&#x201e;" horiz-adv-x="269" 
d="M196 39q-18 0 -30.5 -11.5t-12.5 -28.5q0 -22 13.5 -51.5t29.5 -29.5t29.5 29.5t13.5 51.5q0 17 -12.5 28.5t-30.5 11.5zM73 37q-18 0 -30.5 -11.5t-12.5 -28.5q0 -22 13.5 -51.5t29.5 -29.5t29.5 29.5t13.5 51.5q0 17 -12.5 28.5t-30.5 11.5z" />
    <glyph glyph-name="dagger" unicode="&#x2020;" horiz-adv-x="355" 
d="M315 694q10 0 10 -10q0 -11 -10 -11h-127v-385q0 -10 -10 -10t-10 10v385h-128q-10 0 -10 11q0 10 10 10h128v190q0 10 10 10t10 -10v-190h127z" />
    <glyph glyph-name="daggerdbl" unicode="&#x2021;" horiz-adv-x="355" 
d="M315 494q10 0 10 -11q0 -10 -10 -10h-127v-185q0 -10 -10 -10t-10 10v185h-128q-10 0 -10 10q0 11 10 11h128v179h-128q-10 0 -10 11q0 10 10 10h128v190q0 10 10 10t10 -10v-190h127q10 0 10 -10q0 -11 -10 -11h-127v-179h127z" />
    <glyph glyph-name="bullet" unicode="&#x2022;" horiz-adv-x="183" 
d="M92 307q-26 0 -44 -16.5t-18 -41.5t18 -41.5t44 -16.5t43.5 16.5t17.5 41.5t-17.5 41.5t-43.5 16.5z" />
    <glyph glyph-name="ellipsis" unicode="&#x2026;" horiz-adv-x="490" 
d="M93 66q-18 0 -30.5 -11.5t-12.5 -28.5q0 -18 12.5 -29.5t30.5 -11.5t30.5 11.5t12.5 29.5q0 17 -12.5 28.5t-30.5 11.5zM245 66q-18 0 -30.5 -11.5t-12.5 -28.5q0 -18 12.5 -29.5t30.5 -11.5t30.5 11.5t12.5 29.5q0 17 -12.5 28.5t-30.5 11.5zM397 66q-18 0 -30.5 -11.5
t-12.5 -28.5q0 -18 12.5 -29.5t30.5 -11.5t30.5 11.5t12.5 29.5q0 17 -12.5 28.5t-30.5 11.5z" />
    <glyph glyph-name="perthousand" unicode="&#x2030;" horiz-adv-x="1072" 
d="M209 0q20 0 29 18l321 642q6 12 2 24.5t-16 18.5t-24.5 1.5t-18.5 -15.5l-321 -643q-6 -12 -2 -24.5t16 -18.5q7 -3 14 -3zM182 418q65 0 108.5 41.5t43.5 102.5t-43.5 102.5t-108.5 41.5t-108.5 -41.5t-43.5 -102.5t43.5 -102.5t108.5 -41.5zM182 643q38 0 63 -23
t25 -58t-25 -57.5t-63 -22.5t-63 22.5t-25 57.5t25 58t63 23zM558 0q65 0 108.5 41t43.5 103t-43.5 103t-108.5 41q-64 0 -107.5 -41t-43.5 -103t43.5 -103t107.5 -41zM890 0q65 0 108.5 41.5t43.5 102.5t-43.5 102.5t-108.5 41.5t-108.5 -41.5t-43.5 -102.5t43.5 -102.5
t108.5 -41.5zM558 225q38 0 63 -23t25 -58t-25 -57.5t-63 -22.5t-63 22.5t-25 57.5t25 58t63 23zM890 225q38 0 63 -23t25 -58t-25 -57.5t-63 -22.5t-63 22.5t-25 57.5t25 58t63 23z" />
    <glyph glyph-name="guilsinglleft" unicode="&#x2039;" horiz-adv-x="212" 
d="M150 202q14 0 23 10q9 9 9 22t-9 23l-66 65l66 66q9 9 9 22t-9 23q-10 9 -23 9t-22 -9l-88 -88q-10 -10 -10 -23q0 -12 10 -22l88 -88q9 -10 22 -10z" />
    <glyph glyph-name="guilsinglright" unicode="&#x203a;" horiz-adv-x="212" 
d="M62 202q13 0 22 10l88 88q10 10 10 22q0 13 -10 23l-88 88q-9 9 -22 9t-23 -9q-9 -10 -9 -23t9 -22l66 -66l-66 -65q-9 -10 -9 -23t9 -22q9 -10 23 -10z" />
    <glyph glyph-name="fraction" unicode="&#x2044;" horiz-adv-x="351" 
d="M51 3q13 -5 25 0.5t16 18.5l227 622q5 13 -0.5 25t-18.5 16q-13 5 -25 -0.5t-16 -18.5l-227 -622q-5 -13 0.5 -25t18.5 -16z" />
    <glyph glyph-name="Euro" unicode="&#x20ac;" horiz-adv-x="477" 
d="M436 125q10 -8 11 -21.5t-8 -23.5q-70 -80 -176 -80q-13 0 -19 1l-11 -92q-1 -12 -10.5 -20t-21.5 -8h-3q-13 1 -21.5 11.5t-6.5 24.5l11 98q-67 25 -109 85t-42 134q0 89 58.5 155t144.5 77l11 93q1 13 11.5 21.5t23.5 6.5q13 -1 21.5 -11.5t6.5 -23.5l-10 -86
q84 -12 142 -78q9 -10 8 -23t-11 -22t-23 -8t-22 11q-40 47 -101 56l-16 -136h124q14 0 23 -9t9 -23q0 -13 -9.5 -22.5t-22.5 -9.5h-131l-16 -138h12q78 0 128 58q9 10 22 11t23 -8zM93 234q0 -50 26.5 -91t69.5 -62l37 319q-58 -13 -95.5 -59.5t-37.5 -106.5z" />
    <glyph glyph-name="trademark" unicode="&#x2122;" horiz-adv-x="248" 
d="M212 805q6 -2 6 -9v-94q0 -10 -9 -10q-10 0 -10 10v63l-25 -38q-4 -4 -8 -4q-5 0 -7 4l-26 38v-63q0 -10 -9 -10q-10 0 -10 10v84h-30v-85q0 -9 -9 -9q-10 0 -10 9v85h-25q-10 0 -10 10q0 9 10 9h84h2q3 0 6 -4l34 -51l35 51q3 6 11 4z" />
    <glyph glyph-name="partialdiff" unicode="&#x2202;" horiz-adv-x="413" 
d="M62 572q86 0 160 -55t117.5 -148.5t43.5 -201.5q0 -71 -50.5 -119t-125.5 -48q-76 0 -126.5 48t-50.5 119q0 72 50.5 120t126.5 48q43 0 85 -20q-20 53 -51 94q-77 100 -179 100q-13 0 -22.5 9t-9.5 22t9.5 22.5t22.5 9.5zM207 64q49 0 80.5 29t31.5 74t-31.5 74.5
t-80.5 29.5t-81 -29.5t-32 -74.5t32 -74t81 -29z" />
    <glyph glyph-name="product" unicode="&#x220f;" horiz-adv-x="370" 
d="M330 0q10 0 10 10v506q0 10 -10 10h-290q-10 0 -10 -10v-506q0 -10 10 -10q11 0 11 10v495h268v-495q0 -10 11 -10z" />
    <glyph glyph-name="summation" unicode="&#x2211;" horiz-adv-x="471" 
d="M431 -59q6 0 9 5q2 6 0 11l-51 87q-6 10 -15 4q-8 -5 -4 -14l42 -72h-355l144 327q2 4 0 8l-144 327h355l-42 -72q-4 -10 4 -15q10 -4 15 4l51 88q2 5 0 10q-4 6 -9 6h-387h-6q-8 -2 -8 -10v-1q0 -2 2 -6l148 -335l-149 -337q-2 -5 1 -10t9 -5h390z" />
    <glyph glyph-name="minus" unicode="&#x2212;" horiz-adv-x="348" 
d="M286 271q14 0 23 9.5t9 22.5t-9.5 22.5t-22.5 9.5h-224q-13 0 -22.5 -9.5t-9.5 -22.5t9.5 -22.5t22.5 -9.5h224z" />
    <glyph glyph-name="radical" unicode="&#x221a;" horiz-adv-x="587" 
d="M242 -105h1q5 0 9 6l304 677q4 11 -6 14q-9 4 -14 -5l-295 -659l-108 183q-3 5 -9 5h-83q-11 0 -11 -10q0 -11 11 -11h77l115 -195q3 -5 9 -5z" />
    <glyph glyph-name="infinity" unicode="&#x221e;" horiz-adv-x="544" 
d="M85 230q21 0 53 12t54 23t68 36l12 6q2 -1 5.5 -3t5.5 -3q113 -60 152 -68q33 -7 52 5q27 16 27 66q0 62 -33 83q-13 8 -31.5 9t-36 -3t-44.5 -15t-46 -20.5l-51 -26.5q-76 41 -126.5 58t-81.5 -2q-34 -21 -34 -88q0 -46 25 -61q11 -8 30 -8zM294 319q140 73 177 50
q23 -15 23 -65q0 -37 -17 -48q-8 -5 -19 -5.5t-27 4.5t-28.5 9.5t-35.5 16t-35 18zM101 376q44 0 150 -57q-120 -64 -158 -68q-17 -2 -27 4q-16 10 -16 44q0 55 24 70q11 7 27 7z" />
    <glyph glyph-name="integral" unicode="&#x222b;" horiz-adv-x="560" 
d="M82 -111q53 0 98.5 38.5t56.5 93.5v1l107 557q9 48 48.5 82t85.5 34q23 0 38 -7q9 -5 13 5q5 10 -5 14q-21 9 -46 9q-53 0 -98 -39t-56 -94l-107 -556v-1q-9 -48 -48.5 -82t-86.5 -34q-21 0 -38 7q-9 5 -13 -5q-4 -11 5 -14q21 -9 46 -9z" />
    <glyph glyph-name="approxequal" unicode="&#x2248;" horiz-adv-x="400" 
d="M269 283q26 0 55 21q8 7 14 7q14 0 23 9.5t9 22.5t-9.5 22.5t-22.5 9.5q-26 0 -55 -21q-8 -7 -14 -7t-14 7q-29 21 -55 21q-28 0 -54 -21q-9 -7 -15 -7t-14 7q-29 21 -55 21q-13 0 -22.5 -9.5t-9.5 -22.5t9.5 -22.5t22.5 -9.5q7 0 15 -7q26 -21 54 -21q26 0 55 21
q8 7 14 7t15 -7q26 -21 54 -21zM269 145q26 0 55 21q8 7 14 7q14 0 23 9.5t9 22.5t-9.5 22.5t-22.5 9.5q-26 0 -55 -21q-8 -7 -14 -7t-14 7q-29 21 -55 21q-28 0 -54 -21q-9 -7 -15 -7t-14 7q-29 21 -55 21q-13 0 -22.5 -9.5t-9.5 -22.5t9.5 -22.5t22.5 -9.5q7 0 15 -7
q26 -21 54 -21q26 0 55 21q8 7 14 7t15 -7q26 -21 54 -21z" />
    <glyph glyph-name="notequal" unicode="&#x2260;" horiz-adv-x="348" 
d="M286 258q13 0 22.5 -9.5t9.5 -22.5q0 -14 -9 -23t-23 -9h-124l-8 -16q-14 -27 -44 -15q-17 10 -17 31h-31q-13 0 -22.5 9.5t-9.5 22.5t9.5 22.5t22.5 9.5h59l31 64h-90q-13 0 -22.5 9.5t-9.5 22.5t9.5 22.5t22.5 9.5h121l11 22q6 11 19 15.5t24 -1.5q24 -12 17 -36h32
q13 0 22.5 -9.5t9.5 -22.5q0 -14 -9 -23t-23 -9h-62l-31 -64h93z" />
    <glyph glyph-name="lessequal" unicode="&#x2264;" horiz-adv-x="300" 
d="M238 243q20 0 28 18q6 11 2 24t-16 18l-119 60l119 59q12 6 16 19t-2 24q-5 12 -18 16t-24 -1l-176 -88q-18 -10 -18 -29t18 -29l176 -88q6 -3 14 -3zM62 135h176q13 0 22.5 9.5t9.5 22.5t-9.5 22.5t-22.5 9.5h-176q-13 0 -22.5 -9.5t-9.5 -22.5t9 -22.5t23 -9.5z" />
    <glyph glyph-name="greaterequal" unicode="&#x2265;" horiz-adv-x="300" 
d="M62 243q8 0 14 3l176 88q18 10 18 29t-18 29l-176 88q-11 5 -24 1t-18 -16q-6 -11 -2 -24t16 -19l119 -59l-119 -60q-12 -5 -16 -18t2 -24q8 -18 28 -18zM238 135q14 0 23 9.5t9 22.5t-9.5 22.5t-22.5 9.5h-176q-13 0 -22.5 -9.5t-9.5 -22.5t9.5 -22.5t22.5 -9.5h176z
" />
    <glyph glyph-name="lozenge" unicode="&#x25ca;" horiz-adv-x="319" 
d="M160 164q4 0 8 4l119 164q5 8 -1 14l-119 122q-7 7 -14 0l-120 -122q-5 -7 -1 -14l120 -164q4 -4 8 -4zM54 338l106 108l106 -108l-106 -146z" />
    <glyph glyph-name="u1D153" unicode="&#x1d153;" horiz-adv-x="753" 
d="M370 0q147 0 250 103q103 105 103 250t-103 250q-67 65 -152 89q-22 6 -36 -14q-13 -21 4 -38q70 -74 68 -175q0 -102 -73 -173q-71 -73 -173 -73q-101 -2 -175 68q-17 17 -38 4t-14 -36q25 -88 89 -152q103 -103 250 -103zM141 176q59 -22 118 -21q128 2 217 92
q90 89 92 217q1 59 -21 118q10 -8 28 -24q84 -86 84 -205t-84 -205q-85 -84 -205 -84t-205 84q-21 23 -24 28z" />
    <glyph glyph-name="acute.case" 
d="M194 592h6l135 30q13 3 20 14t5 24q-3 13 -14 20t-24 5l-135 -30q-13 -3 -20 -14t-5 -24q7 -25 32 -25z" />
    <glyph glyph-name="breve.case" 
d="M284 602q38 0 65.5 27t27.5 66q0 13 -9.5 22.5t-22.5 9.5t-22.5 -9.5t-9.5 -22.5q0 -12 -8.5 -21t-20.5 -9t-20.5 9t-8.5 21q0 13 -9.5 22.5t-22.5 9.5t-22.5 -9.5t-9.5 -22.5q0 -39 27.5 -66t65.5 -27z" />
    <glyph glyph-name="caron.case" horiz-adv-x="354" 
d="M62 658q-11 0 -19.5 -7t-10.5 -17q-4 -13 2.5 -24.5t19.5 -14.5l116 -30q7 -1 16 0l115 30q13 3 19.5 14.5t3.5 24.5q-4 13 -15 19.5t-24 3.5l-107 -28l-108 28q-1 0 -3.5 0.5t-4.5 0.5z" />
    <glyph glyph-name="cedilla.case" horiz-adv-x="230" 
d="M108 -215q38 0 65 27.5t27 65.5q0 30 -16.5 53.5t-43.5 33.5v40q0 13 -9.5 22.5t-22.5 9.5q-14 0 -23 -9.5t-9 -22.5v-66q0 -13 9 -22.5t23 -9.5q12 0 20.5 -8.5t8.5 -20.5t-8.5 -20.5t-20.5 -8.5q-14 0 -22 10q-9 10 -22 11t-23 -8t-11 -22t8 -23q29 -32 70 -32z" />
    <glyph glyph-name="circumflex.case" horiz-adv-x="354" 
d="M61 564q2 0 4.5 0.5t3.5 0.5l108 28l107 -28q13 -3 24 3.5t15 19.5q3 13 -3.5 24.5t-19.5 14.5l-115 30q-9 1 -16 0l-116 -30q-13 -3 -19.5 -14.5t-2.5 -24.5q2 -10 10.5 -17t19.5 -7z" />
    <glyph glyph-name="dieresis.case" horiz-adv-x="348" 
d="M82 687q-22 0 -37 -14t-15 -35t15 -35t37 -14q21 0 36.5 14t15.5 35t-15.5 35t-36.5 14zM267 687q-22 0 -37 -14t-15 -35t15 -35t37 -14q21 0 36 14t15 35t-15 35t-36 14z" />
    <glyph glyph-name="dotaccent.case" horiz-adv-x="164" 
d="M82 693q-22 0 -37 -14t-15 -35t15 -35t37 -14q21 0 36.5 14t15.5 35t-15.5 35t-36.5 14z" />
    <glyph glyph-name="grave.case" horiz-adv-x="260" 
d="M197 592q25 0 32 25q2 13 -5 24t-20 14l-135 30q-13 2 -24 -5t-14 -20q-2 -13 5 -24t20 -14l135 -30h6z" />
    <glyph glyph-name="hungarumlaut.case" horiz-adv-x="409" 
d="M73 590q2 0 6 2l115 76q12 7 14.5 20.5t-4.5 24.5t-20.5 13.5t-23.5 -4.5l-116 -76q-11 -7 -13.5 -20.5t3.5 -23.5q17 -22 39 -12zM243 590q2 0 6 2l115 76q12 7 14.5 20.5t-4.5 24.5t-20.5 13.5t-23.5 -4.5l-116 -76q-11 -7 -13.5 -20.5t3.5 -23.5q17 -22 39 -12z" />
    <glyph glyph-name="macron.case" horiz-adv-x="293" 
d="M232 607q13 0 22 9.5t9 22.5t-9 22.5t-22 9.5h-170q-14 0 -23 -9.5t-9 -22.5t9 -22.5t23 -9.5h170z" />
    <glyph glyph-name="ogonek.case" 
d="M333 7q8 24 -12 39q-12 6 -25 3t-20 -14l-72 -118q-7 -11 -4 -24t15 -20q11 -7 24 -4t20 15l72 117z" />
    <glyph glyph-name="ring.case" horiz-adv-x="227" 
d="M113 575q35 0 59.5 23t24.5 57t-24.5 57.5t-59.5 23.5t-59 -23.5t-24 -57.5t24 -57t59 -23zM113 672q20 0 20 -17q0 -16 -20 -16q-19 0 -19 16q0 17 19 17z" />
    <glyph glyph-name="tilde.case" horiz-adv-x="400" 
d="M269 596q28 0 54 21q9 7 15 7q14 0 23 9t9 23q0 13 -9.5 22.5t-22.5 9.5q-26 0 -55 -21q-8 -7 -14 -7t-14 7q-29 21 -55 21q-28 0 -54 -21q-9 -7 -15 -7t-14 7q-29 21 -55 21q-13 0 -22.5 -9.5t-9.5 -22.5t9.5 -22.5t22.5 -9.5q6 0 15 -7q26 -21 54 -21q26 0 55 21
q8 7 14 7t15 -7q26 -21 54 -21z" />
    </font>
</defs>
</svg>
